<svg width="23" height="22" viewBox="0 0 23 22" fill="none" xmlns="http://www.w3.org/2000/svg">
    <path d="M11.4897 21.0837C10.083 21.0918 8.68969 20.809 7.39743 20.253C6.14505 19.7191 5.00617 18.9509 4.042 17.9897C3.08082 17.0255 2.31263 15.8867 1.77869 14.6343C1.2227 13.342 0.939881 11.9487 0.948002 10.542C0.938166 9.13231 1.22103 7.73593 1.77869 6.44123C2.31411 5.19216 3.08219 4.05632 4.042 3.09424C5.00618 2.13306 6.14506 1.3649 7.39743 0.830959C8.6897 0.274995 10.083 -0.00784517 11.4897 0.00024492C12.8994 -0.00952946 14.2957 0.273356 15.5905 0.830959C16.8395 1.36642 17.9753 2.13447 18.9375 3.09424C19.8973 4.05632 20.6653 5.19216 21.2008 6.44123C21.7584 7.73593 22.0413 9.13231 22.0315 10.542C22.0396 11.9487 21.7568 13.342 21.2008 14.6343C20.6668 15.8867 19.8986 17.0255 18.9375 17.9897C17.9754 18.9495 16.8395 19.7175 15.5905 20.253C14.2957 20.8106 12.8994 21.0935 11.4897 21.0837ZM11.4897 19.397C12.0324 18.6832 12.5108 17.9226 12.9192 17.1242C13.3211 16.324 13.639 15.4842 13.8679 14.6185H9.11784C9.35402 15.4965 9.67421 16.3497 10.074 17.1664C10.469 17.956 10.9434 18.7034 11.4897 19.397ZM9.34132 19.0924C8.89162 18.4379 8.50779 17.7405 8.19544 17.0104C7.85902 16.2395 7.5947 15.4391 7.40586 14.6195H3.64141C4.20754 15.7471 5.01221 16.7381 5.9996 17.5237C6.97483 18.3023 8.1202 18.8394 9.34238 19.0913L9.34132 19.0924ZM13.6392 19.0924C14.8611 18.84 16.0061 18.3025 16.9809 17.5237C17.9683 16.7381 18.773 15.7471 19.3391 14.6195H15.5746C15.3524 15.4394 15.0705 16.2421 14.7313 17.0209C14.4239 17.7395 14.0587 18.4319 13.6392 19.0913V19.0924ZM2.94355 12.955H7.06853C6.99825 12.5424 6.94765 12.138 6.91673 11.7416C6.88581 11.3453 6.87034 10.9454 6.87034 10.542C6.87034 10.1393 6.88616 9.73972 6.91778 9.34335C6.94941 8.94698 7.00001 8.54253 7.06958 8.13H2.9446C2.83599 8.51573 2.75393 8.90851 2.69899 9.30546C2.64185 9.71516 2.61332 10.1283 2.6136 10.542C2.61336 10.9553 2.6419 11.3681 2.69899 11.7775C2.75393 12.1744 2.83599 12.5671 2.9446 12.9529L2.94355 12.955ZM8.73307 12.955H14.2474C14.3177 12.5424 14.3683 12.1415 14.3992 11.7522C14.4302 11.3628 14.4442 10.9594 14.4414 10.542C14.4414 10.1252 14.4256 9.72221 14.394 9.33287C14.3623 8.94352 14.3118 8.54253 14.2422 8.13H8.72779C8.65752 8.54253 8.60692 8.94352 8.576 9.33287C8.54507 9.72221 8.53242 10.1252 8.53804 10.542C8.53804 10.9587 8.55386 11.3617 8.58549 11.7511C8.61711 12.1404 8.66666 12.5414 8.73412 12.9539L8.73307 12.955ZM15.912 12.955H20.037C20.1456 12.5692 20.2276 12.1765 20.2826 11.7796C20.3397 11.3702 20.3682 10.9574 20.368 10.5441C20.3682 10.1308 20.3397 9.71796 20.2826 9.30861C20.2276 8.91166 20.1456 8.51895 20.037 8.13322H15.9173C15.9875 8.54575 16.0381 8.9502 16.0691 9.34657C16.1 9.74294 16.1158 10.1424 16.1165 10.5451C16.1165 10.9478 16.1007 11.3474 16.0691 11.7437C16.0374 12.1401 15.9868 12.5446 15.9173 12.9571L15.912 12.955ZM15.5746 6.46761H19.3391C18.7782 5.3411 17.9789 4.3501 16.9967 3.56335C16.0136 2.78571 14.8648 2.24467 13.6392 1.98209C14.0786 2.654 14.4585 3.363 14.7745 4.10099C15.1055 4.86667 15.3731 5.65819 15.5746 6.46761ZM9.11468 6.46761H13.8648C13.6239 5.58378 13.2984 4.72522 12.8928 3.90385C12.5014 3.11929 12.0313 2.37647 11.4897 1.6869C10.9484 2.37547 10.4783 3.11723 10.0866 3.9007C9.6812 4.72312 9.35501 5.58274 9.11468 6.46761ZM3.64141 6.46761H7.40586C7.60756 5.65891 7.87516 4.86812 8.20598 4.10312C8.52204 3.36512 8.90193 2.65612 9.34132 1.98422C8.11293 2.24341 6.96167 2.78476 5.97852 3.56548C5.00151 4.35492 4.20389 5.34449 3.64141 6.46761Z" fill="url(#paint0_linear_57_187)"/>
    <defs>
    <linearGradient id="paint0_linear_57_187" x1="0.947754" y1="10.542" x2="22.0317" y2="10.542" gradientUnits="userSpaceOnUse">
    <stop stop-color="#5a31ee"/>
    <stop offset="1" stop-color="#8f69ec"/>
    </linearGradient>
    </defs>
    </svg>
    