<svg width="18" height="18" viewBox="0 0 18 18" fill="none" xmlns="http://www.w3.org/2000/svg">
<path d="M9 13.5462L3.8769 8.4231L5.1417 7.1217L8.1 10.08V0H9.9V10.08L12.8583 7.1217L14.1231 8.4231L9 13.5462ZM2.1693 18C1.5631 18 1.05 17.79 0.63 17.37C0.21 16.95 0 16.4369 0 15.8307V12.5769H1.8V15.8307C1.8 15.9231 1.8385 16.0077 1.9155 16.0845C1.9923 16.1615 2.0769 16.2 2.1693 16.2H15.8307C15.9231 16.2 16.0077 16.1615 16.0845 16.0845C16.1615 16.0077 16.2 15.9231 16.2 15.8307V12.5769H18V15.8307C18 16.4369 17.79 16.95 17.37 17.37C16.95 17.79 16.4369 18 15.8307 18H2.1693Z" fill="url(#paint0_linear_1588_2643)"/>
<defs>
<linearGradient id="paint0_linear_1588_2643" x1="0" y1="9" x2="18" y2="9" gradientUnits="userSpaceOnUse">
  <stop stop-color="#5a31ee"/>
  <stop offset="1" stop-color="#8f69ec"/>
</linearGradient>
</defs>
</svg>
