<svg width="640" height="492" viewBox="0 0 640 492" fill="none" xmlns="http://www.w3.org/2000/svg">
<g clip-path="url(#clip0_39_3981)">
<path d="M95.2524 113.975L93.4062 112.97V73.9909L95.2524 74.9917V113.975Z" fill="#2E8DB7"/>
<path d="M95.2524 74.9917L93.4062 73.9909L152.886 39.1071L154.732 40.1079L95.2524 74.9917Z" fill="#4FC1E0"/>
<path d="M154.732 40.1079L95.2523 74.9917V113.975L103.678 109.071V123.955L112.328 104.039L154.732 79.3712V40.1079Z" fill="#379CD3"/>
<path d="M101.656 110.248V122.726L103.678 123.955V109.071L101.656 110.248Z" fill="#2E8DB7"/>
<path d="M149.794 55.3881V70.2119L100.214 98.8788L100.194 84.2711L149.794 55.3881Z" fill="#B3BAE8"/>
<path d="M146.443 61.521V63.2704L103.77 88.1382V86.4248L146.443 61.521Z" fill="white"/>
<path d="M146.443 65.3761V67.8781L103.77 92.7459V90.2799L146.443 65.3761Z" fill="white"/>
<path d="M282.882 3.03842V31.417L187.974 86.2928L187.934 58.3305L282.882 3.03842Z" fill="#0066CF"/>
<path d="M278.317 15.2842V17.9063L214.356 55.184L214.348 52.6179L278.317 15.2842Z" fill="white"/>
<path d="M278.317 21.0608V24.8118L214.356 62.0895L214.348 58.3945L278.317 21.0608Z" fill="white"/>
<path d="M206.094 65.3361C206.094 65.3361 207.888 66.3849 208.565 68.9189L195.835 76.3929C195.835 76.3929 196.267 71.9453 197.441 70.8645L206.09 65.3361H206.094Z" fill="#EBFBFF"/>
<path d="M200.04 68.1143C202.327 68.1143 204.18 65.7072 204.18 62.738C204.18 59.7687 202.327 57.3617 200.04 57.3617C197.753 57.3617 195.899 59.7687 195.899 62.738C195.899 65.7072 197.753 68.1143 200.04 68.1143Z" fill="#EBFBFF"/>
<path d="M282.882 3.03842L278.317 0L182.84 55.3201L187.934 58.3305L282.882 3.03842Z" fill="#057BE5"/>
<path d="M182.84 55.3201V82.7259L187.974 86.2927L187.934 58.3305L182.84 55.3201Z" fill="#0D93F7"/>
<path d="M539.958 220.476V248.854L634.866 303.726L634.906 275.768L539.958 220.476Z" fill="#0066CF"/>
<path d="M544.523 232.721V235.344L608.484 272.621L608.492 270.055L544.523 232.721Z" fill="white"/>
<path d="M544.523 238.498V242.249L608.484 279.527L608.492 275.832L544.523 238.498Z" fill="white"/>
<path d="M616.746 282.773C616.746 282.773 614.952 283.822 614.275 286.356L627.005 293.83C627.005 293.83 626.573 289.383 625.399 288.302L616.75 282.773H616.746Z" fill="#EBFBFF"/>
<path d="M622.8 285.552C625.087 285.552 626.941 283.144 626.941 280.175C626.941 277.206 625.087 274.799 622.8 274.799C620.514 274.799 618.66 277.206 618.66 280.175C618.66 283.144 620.514 285.552 622.8 285.552Z" fill="#EBFBFF"/>
<path d="M539.958 220.476L544.523 217.437L640 272.757L634.906 275.768L539.958 220.476Z" fill="#057BE5"/>
<path d="M640 272.757V300.163L634.866 303.726L634.906 275.768L640 272.757Z" fill="#0D93F7"/>
<path d="M567.377 168.682L541.736 170.112L516.099 168.458C516.099 183.662 520.604 195.62 523.259 200.372C523.952 202.409 525.65 204.347 528.357 205.912C535.657 210.131 547.655 210.131 555.023 205.912C557.71 204.371 559.424 202.469 560.157 200.468C562.804 195.76 567.377 183.991 567.377 168.682Z" fill="#3C0964"/>
<path d="M523.608 158.27C513.624 164.067 513.584 173.51 523.52 179.255C533.459 185.003 549.797 185.003 559.829 179.255C569.86 173.506 569.9 164.063 559.913 158.27C549.93 152.473 533.591 152.473 523.604 158.27H523.608Z" fill="#6F13B9"/>
<path d="M527.244 160.372C519.263 165.003 519.231 172.553 527.176 177.149C535.121 181.745 548.18 181.745 556.201 177.149C564.222 172.553 564.25 165.007 556.269 160.372C548.288 155.74 535.225 155.74 527.244 160.372Z" fill="#0D348C"/>
<path d="M535.653 122.99C535.401 122.894 535.121 123.018 535.021 123.27L517.873 167.954C517.777 168.206 517.901 168.486 518.153 168.586C518.209 168.61 518.27 168.618 518.33 168.618C518.526 168.618 518.71 168.498 518.786 168.306L535.934 123.623C536.03 123.37 535.906 123.09 535.653 122.99Z" fill="#42413E"/>
<path d="M565.671 167.95L548.524 123.266C548.428 123.014 548.143 122.89 547.891 122.986C547.639 123.082 547.515 123.366 547.611 123.618L564.758 168.302C564.834 168.498 565.019 168.614 565.215 168.614C565.275 168.614 565.331 168.602 565.391 168.582C565.643 168.486 565.767 168.202 565.671 167.95Z" fill="#42413E"/>
<path d="M541.736 127.349C541.468 127.349 541.248 127.57 541.248 127.838V181.605C541.248 181.873 541.468 182.093 541.736 182.093C542.005 182.093 542.225 181.873 542.225 181.605V127.838C542.225 127.57 542.005 127.349 541.736 127.349Z" fill="#42413E"/>
<path d="M422.685 78.6427L397.044 80.0718L371.406 78.4185C371.406 93.6226 375.911 105.58 378.567 110.332C379.259 112.37 380.957 114.307 383.664 115.872C390.965 120.092 402.962 120.092 410.331 115.872C413.018 114.331 414.732 112.43 415.464 110.428C418.111 105.72 422.685 93.9509 422.685 78.6427Z" fill="#3C0964"/>
<path d="M378.915 68.2304C368.932 74.027 368.892 83.4705 378.831 89.2151C388.77 94.9637 405.109 94.9637 415.14 89.2151C425.172 83.4665 425.212 74.023 415.224 68.2304C405.241 62.4337 388.902 62.4337 378.915 68.2304Z" fill="#6F13B9"/>
<path d="M382.551 70.332C374.57 74.9637 374.538 82.5138 382.483 87.1094C390.428 91.7051 403.487 91.7051 411.508 87.1094C419.529 82.5138 419.557 74.9637 411.576 70.332C403.595 65.7004 390.532 65.7004 382.551 70.332Z" fill="#0D348C"/>
<path d="M390.961 32.9463C390.708 32.8502 390.428 32.9743 390.328 33.2265L373.18 77.9101C373.084 78.1623 373.208 78.4425 373.461 78.5426C373.517 78.5626 373.577 78.5746 373.637 78.5746C373.833 78.5746 374.017 78.4545 374.093 78.2624L391.241 33.5788C391.337 33.3266 391.213 33.0463 390.961 32.9463Z" fill="#42413E"/>
<path d="M420.975 77.9101L403.827 33.2265C403.731 32.9743 403.447 32.8502 403.195 32.9463C402.942 33.0423 402.818 33.3266 402.914 33.5788L420.062 78.2624C420.138 78.4585 420.322 78.5746 420.518 78.5746C420.578 78.5746 420.634 78.5626 420.694 78.5426C420.947 78.4465 421.071 78.1623 420.975 77.9101Z" fill="#42413E"/>
<path d="M397.044 37.3097C396.775 37.3097 396.555 37.5299 396.555 37.7981V91.5649C396.555 91.8332 396.775 92.0533 397.044 92.0533C397.312 92.0533 397.532 91.8332 397.532 91.5649V37.7981C397.532 37.5299 397.312 37.3097 397.044 37.3097Z" fill="#42413E"/>
<path d="M499.496 247.97V228.462H436.276V248.682H436.3C436.561 253.146 439.596 257.553 445.431 260.928C457.681 268.014 477.824 268.014 490.19 260.928C496.393 257.373 499.492 252.673 499.492 247.97H499.496Z" fill="#3C0964"/>
<path d="M445.539 215.548C433.229 222.689 433.181 234.335 445.435 241.416C457.685 248.502 477.828 248.502 490.194 241.416C502.56 234.331 502.608 222.689 490.298 215.548C477.988 208.406 457.849 208.406 445.539 215.548Z" fill="#6F13B9"/>
<path d="M396.022 21.9575C395.065 21.1889 393.648 21.1849 392.066 22.1256C389.207 23.831 386.868 27.9663 386.868 31.321C386.868 33.1104 387.533 34.3394 388.586 34.8518L458.778 79.1591L466.459 66.3929L396.022 21.9575Z" fill="#BABABA"/>
<path d="M457.488 75.8965C457.488 79.2512 459.827 80.6443 462.686 78.995C465.546 77.3456 467.884 73.2064 467.884 69.7996C467.884 66.3929 465.546 64.9958 462.686 66.7012C459.827 68.4065 457.488 72.5418 457.488 75.8965Z" fill="#5E5E5E"/>
<path d="M480.691 227.633C480.691 227.633 480.691 227.621 480.691 227.617V46.6892H455.09V227.593C455.098 229.527 456.367 231.468 458.906 232.942C463.956 235.876 472.109 235.876 477.031 232.942C479.481 231.48 480.699 229.563 480.687 227.649V227.633H480.691Z" fill="#F7F7F7"/>
<path d="M458.79 41.373C453.804 44.2753 453.856 49.0471 458.906 51.9814C463.956 54.9158 472.109 54.9158 477.031 51.9814C481.952 49.0471 481.9 44.2753 476.914 41.373C471.929 38.4706 463.772 38.4706 458.786 41.373H458.79Z" fill="#A0A0A0"/>
<path d="M480.266 73.8028C479.309 73.0342 477.892 73.0302 476.31 73.9709C473.451 75.6763 471.112 79.8116 471.112 83.1663C471.112 84.9557 471.777 86.1847 472.83 86.6931L543.022 131L550.702 118.234L480.266 73.7988V73.8028Z" fill="#BABABA"/>
<path d="M541.736 127.742C541.736 131.096 544.075 132.49 546.934 130.84C549.793 129.191 552.132 125.052 552.132 121.645C552.132 118.238 549.793 116.841 546.934 118.546C544.075 120.252 541.736 124.387 541.736 127.742Z" fill="#E2E2E2"/>
<path d="M486.373 46.6692V35.2601H449.407V47.0855H449.423C449.575 49.6956 451.353 52.2737 454.765 54.2472C461.929 58.3905 473.707 58.3905 480.939 54.2472C484.567 52.1696 486.381 49.4194 486.381 46.6692H486.373Z" fill="#3C0964"/>
<path d="M454.821 27.7141C447.625 31.8894 447.597 38.6988 454.761 42.8421C461.925 46.9854 473.703 46.9854 480.935 42.8421C488.167 38.6988 488.195 31.8934 480.999 27.7141C473.803 23.5387 462.026 23.5387 454.825 27.7141H454.821Z" fill="#6F13B9"/>
<path d="M113.878 302.933V290.195H160.002L267.5 228.61C280.267 221.296 301.167 221.28 313.945 228.57L421.932 290.171H466.451V301.004C466.903 306.144 463.751 311.38 456.988 315.315L313.829 398.594C307.346 402.365 298.752 404.218 290.194 404.174L290.182 404.182L290.17 404.174C281.945 404.13 273.751 402.329 267.496 398.746L123.444 316.228C117.061 312.573 113.87 307.753 113.87 302.929L113.878 302.933Z" fill="#C6C6C6"/>
<path d="M267.5 194.175C280.267 186.861 301.167 186.845 313.945 194.135L456.876 275.668C469.654 282.957 469.706 294.975 456.988 302.373L313.829 385.651C301.11 393.049 280.263 393.117 267.496 385.807L123.444 303.29C110.678 295.976 110.678 284.01 123.444 276.696L267.496 194.179L267.5 194.175Z" fill="#F7F7F7"/>
<path d="M163.021 293.414V268.726H196.291L273.827 224.307C283.034 219.035 298.111 219.019 307.326 224.279L385.214 268.71H417.323V292.025C417.647 295.732 415.372 299.511 410.499 302.345L307.245 362.409C302.568 365.127 296.373 366.468 290.198 366.436H290.19H290.182C284.247 366.404 278.341 365.107 273.827 362.521L169.929 303.005C165.324 300.367 163.021 296.893 163.021 293.414Z" fill="#C6C6C6"/>
<path d="M273.823 199.619C283.03 194.343 298.107 194.331 307.322 199.587L410.415 258.394C419.633 263.65 419.669 272.317 410.495 277.657L307.241 337.721C298.067 343.057 283.03 343.105 273.823 337.833L169.925 278.318C160.719 273.046 160.719 264.411 169.925 259.138L273.823 199.623V199.619Z" fill="#FCFCFC"/>
<path d="M210.952 136.749V266.692L196.243 275.624V144.751L210.952 136.749Z" fill="#D8D8D8"/>
<path d="M181.538 136.749V266.692L196.243 275.624V144.751L181.538 136.749Z" fill="#E8E8E8"/>
<path d="M210.952 136.749L196.243 127.91L181.538 136.749L196.243 144.751L210.952 136.749Z" fill="#A0A0A0"/>
<path d="M255.298 112.273V242.213L240.594 251.148V120.276L255.298 112.273Z" fill="#D8D8D8"/>
<path d="M225.889 112.273V242.213L240.594 251.148V120.276L225.889 112.273Z" fill="#E8E8E8"/>
<path d="M255.298 112.273L240.594 103.43L225.889 112.273L240.594 120.276L255.298 112.273Z" fill="#A0A0A0"/>
<path d="M297.787 86.7091V216.653L283.082 225.584V94.7115L297.787 86.7091Z" fill="#A8A8A8"/>
<path d="M268.373 86.7091V216.653L283.082 225.584V94.7115L268.373 86.7091Z" fill="#E8E8E8"/>
<path d="M297.787 86.7091L283.082 77.8701L268.373 86.7091L283.082 94.7115L297.787 86.7091Z" fill="#A0A0A0"/>
<path d="M311.634 189.967V319.911L296.926 328.842V197.97L311.634 189.967Z" fill="#D8D8D8"/>
<path d="M282.221 189.967V319.911L296.926 328.842V197.97L282.221 189.967Z" fill="#E8E8E8"/>
<path d="M311.634 189.967L296.926 181.128L282.221 189.967L296.926 197.97L311.634 189.967Z" fill="#A0A0A0"/>
<path d="M355.981 165.492V295.431L341.276 304.362V173.494L355.981 165.492Z" fill="#D8D8D8"/>
<path d="M326.567 165.492V295.431L341.276 304.362V173.494L326.567 165.492Z" fill="#E8E8E8"/>
<path d="M355.981 165.492L341.276 156.653L326.567 165.492L341.276 173.494L355.981 165.492Z" fill="#A0A0A0"/>
<path d="M398.469 139.927V269.871L383.765 278.802V147.93L398.469 139.927Z" fill="#D8D8D8"/>
<path d="M369.056 139.927V269.871L383.765 278.802V147.93L369.056 139.927Z" fill="#E8E8E8"/>
<path d="M398.469 139.927L383.765 131.088L369.056 139.927L383.765 147.93L398.469 139.927Z" fill="#A0A0A0"/>
<path d="M163.021 140.276V131.088H196.291L273.827 86.673C283.034 81.4008 298.111 81.3848 307.326 86.641L385.214 131.072H417.323V138.887C417.647 142.594 415.372 146.373 410.499 149.207L307.245 209.275C302.568 211.993 296.373 213.334 290.198 213.298H290.19H290.182C284.247 213.266 278.341 211.969 273.827 209.383L169.929 149.867C165.324 147.229 163.021 143.755 163.021 140.276Z" fill="#D8D8D8"/>
<path d="M273.823 61.8333C283.03 56.5571 298.107 56.545 307.322 61.8012L410.415 120.608C419.633 125.868 419.669 134.535 410.495 139.867L307.241 199.935C298.067 205.272 283.03 205.32 273.823 200.047L169.925 140.532C160.719 135.256 160.719 126.625 169.925 121.353L273.823 61.8373V61.8333Z" fill="#F7F7F7"/>
<path d="M222.813 101.229L287.05 194.183L399.326 129.515L335.181 35.6524L222.813 101.229Z" fill="#7E1ACE"/>
<path d="M222.813 101.229L173.866 129.243L287.05 194.183L222.813 101.229Z" fill="#5C1D8E"/>
<path d="M212.374 120.456L212.097 119.928L214.488 118.763C214.532 118.743 214.572 118.723 214.616 118.703H214.62C216.967 117.59 220.074 117.866 223.466 119.799C230.742 123.955 236.693 134.315 236.693 142.826C236.693 147.47 234.919 150.616 232.128 151.825L229.449 153.122L229.057 152.373C227.359 152.313 225.464 151.729 223.466 150.564C216.19 146.309 210.239 135.948 210.239 127.538C210.239 124.487 211.024 122.081 212.37 120.456H212.374Z" fill="#AFA605"/>
<path d="M233.85 144.195C233.85 135.684 227.899 125.32 220.623 121.169C213.347 117.017 207.396 120.5 207.396 128.907C207.396 137.313 213.347 147.678 220.623 151.933C227.899 156.188 233.85 152.706 233.85 144.195Z" fill="#D8D209"/>
<path d="M232.861 143.626C232.861 135.748 227.351 126.161 220.619 122.313C213.887 118.47 208.377 121.693 208.377 129.475C208.377 137.257 213.883 146.849 220.619 150.788C227.351 154.727 232.861 151.505 232.861 143.626Z" fill="#AFA709"/>
<path d="M231.888 143.066C231.888 135.816 226.818 126.989 220.623 123.454C214.428 119.92 209.358 122.882 209.358 130.048C209.358 137.213 214.428 146.036 220.623 149.659C226.818 153.282 231.888 150.32 231.888 143.07V143.066Z" fill="#E8D810"/>
<path d="M295.937 310.151L297.787 309.146V270.167L295.937 271.168V310.151Z" fill="#2E8DB7"/>
<path d="M295.937 271.168L297.787 270.167L238.307 235.283L236.457 236.284L295.937 271.168Z" fill="#4FC1E0"/>
<path d="M236.457 236.284L295.937 271.168V310.151L287.511 305.247V320.131L278.861 300.215L236.457 275.548V236.284Z" fill="#379CD3"/>
<path d="M289.537 306.424V318.902L287.511 320.131V305.247L289.537 306.424Z" fill="#2E8DB7"/>
<path d="M241.399 251.564V266.388L290.979 295.055L290.999 280.447L241.399 251.564Z" fill="#B3BAE8"/>
<path d="M244.746 257.693V259.447L287.419 284.315L287.423 282.601L244.746 257.693Z" fill="white"/>
<path d="M244.746 261.552V264.054L287.419 288.922L287.423 286.456L244.746 261.552Z" fill="white"/>
<path d="M604.432 389.715L445.507 482.316L326.435 412.653L485.829 321.652L604.432 389.715Z" fill="#3A5D77"/>
<path d="M604.432 397.385L445.507 489.986L326.435 420.323L485.829 329.322L604.432 397.385Z" fill="#A0BEEA"/>
<path d="M604.432 380.675L445.507 473.277L326.435 403.614L485.829 312.613L604.432 380.675Z" fill="#481AAF"/>
<path d="M445.507 482.316V473.277L326.435 403.614V412.653L445.507 482.316Z" fill="#26136D"/>
<path d="M604.431 389.715V380.675L445.507 473.277V482.316L604.431 389.715Z" fill="#36168E"/>
<path d="M593.479 379.166L489.289 319.374L340.523 405.359L444.389 466.031L593.479 379.166Z" fill="#EFEFEF"/>
<path d="M566.993 356.108V349.27L546.858 361.172V367.437L566.993 356.108Z" fill="#D6680D"/>
<path d="M566.993 349.27L526.891 326.212L505.787 338.362L546.858 361.172L566.993 349.27Z" fill="#FF933B"/>
<path d="M505.787 338.362V344.438L546.858 367.437V361.172L505.787 338.362Z" fill="#F97C0B"/>
<path d="M566.993 356.108V359.19L564.278 357.633L566.993 356.108Z" fill="#D6680D"/>
<path d="M471.232 346.328L550.298 391.496L545.581 394.174L467.147 349.234L471.232 346.328Z" fill="#C9C9C9"/>
<path d="M459.655 353.145L538.509 398.189L533.787 400.867L455.574 356.052L459.655 353.145Z" fill="#C9C9C9"/>
<path d="M446.192 360.119L525.634 405.499L520.913 408.181L442.107 363.025L446.192 360.119Z" fill="#C9C9C9"/>
<path d="M434.618 366.94L513.84 412.196L509.123 414.875L430.534 369.847L434.618 366.94Z" fill="#C9C9C9"/>
<path d="M422.02 374.566L500.826 419.586L496.108 422.264L417.935 377.473L422.02 374.566Z" fill="#C9C9C9"/>
<path d="M410.447 381.388L489.036 426.28L484.319 428.958L406.362 384.294L410.447 381.388Z" fill="#C9C9C9"/>
<path d="M396.98 388.361L476.162 433.589L471.44 436.272L392.899 391.268L396.98 388.361Z" fill="#C9C9C9"/>
<path d="M385.406 395.179L464.368 440.287L459.651 442.965L381.322 398.085L385.406 395.179Z" fill="#C9C9C9"/>
<path d="M544.876 305.307C543.955 304.082 542.625 302.933 540.887 301.941C533.483 297.693 521.465 297.793 514.185 302.161C512.503 303.169 511.214 304.314 510.308 305.535L508.743 305.547V309.519C508.522 312.493 510.337 315.479 514.185 317.681C521.469 321.848 533.483 321.748 540.887 317.461C544.403 315.423 546.249 312.781 546.426 310.107H546.442V305.303L544.876 305.315V305.307Z" fill="#CCBB1F"/>
<path d="M540.891 297.969C533.487 293.722 521.469 293.822 514.189 298.19C506.905 302.557 506.905 309.539 514.189 313.706C521.473 317.873 533.487 317.773 540.891 313.486C548.296 309.198 548.296 302.217 540.891 297.969Z" fill="#DDCF22"/>
<path d="M538.489 299.383C532.422 295.9 522.57 295.984 516.604 299.563C510.633 303.142 510.633 308.866 516.604 312.281C522.574 315.696 532.422 315.615 538.489 312.101C544.555 308.586 544.555 302.865 538.489 299.383Z" fill="#C1B121"/>
<path d="M526.903 308.133V306.068C525.634 305.884 524.701 305.607 524.108 305.231C523.516 304.859 523.219 304.407 523.219 303.874C523.219 303.342 523.556 302.881 524.224 302.517C524.893 302.153 525.786 301.941 526.899 301.884V301.396H528.309V301.884C529.338 301.949 530.159 302.125 530.768 302.417C531.377 302.709 531.765 303.105 531.933 303.598L529.474 303.762C529.326 303.374 528.938 303.113 528.309 302.973V304.899C529.863 305.111 530.924 305.387 531.485 305.728C532.049 306.068 532.33 306.504 532.33 307.037C532.33 307.629 531.973 308.133 531.264 308.538C530.556 308.942 529.57 309.194 528.305 309.286V310.207H526.895V309.31C525.774 309.242 524.865 309.03 524.164 308.674C523.464 308.318 523.019 307.817 522.823 307.173L525.358 307.037C525.462 307.301 525.654 307.525 525.942 307.717C526.227 307.909 526.543 308.045 526.895 308.129L526.903 308.133ZM526.903 302.961C526.523 303.025 526.219 303.138 525.99 303.298C525.762 303.454 525.65 303.63 525.65 303.818C525.65 303.99 525.754 304.154 525.962 304.302C526.171 304.451 526.483 304.571 526.903 304.663V302.957V302.961ZM528.313 308.202C528.798 308.158 529.194 308.041 529.498 307.857C529.803 307.673 529.955 307.461 529.955 307.213C529.955 306.993 529.827 306.804 529.57 306.644C529.314 306.484 528.894 306.364 528.313 306.276V308.198V308.202Z" fill="#EFDB22"/>
<path d="M544.876 298.918C543.955 297.693 542.625 296.544 540.887 295.551C533.483 291.304 521.465 291.404 514.185 295.772C512.503 296.78 511.214 297.925 510.308 299.146L508.743 299.158V303.129C508.522 306.104 510.337 309.09 514.185 311.292C521.469 315.459 533.483 315.359 540.887 311.072C544.403 309.034 546.249 306.392 546.426 303.718H546.442V298.914L544.876 298.926V298.918Z" fill="#CCBB1F"/>
<path d="M540.891 291.576C533.487 287.329 521.469 287.429 514.189 291.796C506.905 296.164 506.905 303.146 514.189 307.313C521.473 311.48 533.487 311.38 540.891 307.093C548.296 302.805 548.296 295.824 540.891 291.576Z" fill="#DDCF22"/>
<path d="M538.489 292.989C532.422 289.511 522.57 289.591 516.604 293.17C510.633 296.748 510.633 302.473 516.604 305.888C522.574 309.302 532.422 309.222 538.489 305.708C544.555 302.193 544.555 296.472 538.489 292.989Z" fill="#C1B121"/>
<path d="M526.903 301.744V299.679C525.634 299.495 524.701 299.218 524.108 298.842C523.516 298.466 523.219 298.017 523.219 297.485C523.219 296.953 523.556 296.492 524.224 296.128C524.893 295.764 525.786 295.551 526.899 295.495V295.007H528.309V295.495C529.338 295.559 530.159 295.736 530.768 296.032C531.377 296.324 531.765 296.72 531.933 297.213L529.474 297.377C529.326 296.989 528.938 296.728 528.309 296.588V298.514C529.863 298.726 530.924 299.002 531.485 299.342C532.049 299.683 532.33 300.119 532.33 300.652C532.33 301.244 531.973 301.748 531.264 302.153C530.556 302.557 529.57 302.809 528.305 302.901V303.822H526.895V302.925C525.774 302.857 524.865 302.645 524.164 302.289C523.464 301.933 523.019 301.432 522.823 300.788L525.358 300.652C525.462 300.916 525.654 301.14 525.942 301.332C526.227 301.524 526.543 301.66 526.895 301.744H526.903ZM526.903 296.572C526.523 296.636 526.219 296.748 525.99 296.909C525.762 297.065 525.65 297.241 525.65 297.429C525.65 297.601 525.754 297.765 525.962 297.913C526.171 298.061 526.483 298.182 526.903 298.274V296.568V296.572ZM528.313 301.812C528.798 301.768 529.194 301.652 529.498 301.468C529.803 301.284 529.955 301.072 529.955 300.824C529.955 300.603 529.827 300.415 529.57 300.255C529.314 300.095 528.894 299.975 528.313 299.887V301.808V301.812Z" fill="#EFDB22"/>
<path d="M544.876 292.269C543.955 291.044 542.625 289.895 540.887 288.902C533.483 284.655 521.465 284.755 514.185 289.122C512.503 290.131 511.214 291.276 510.308 292.497L508.743 292.509V296.48C508.522 299.455 510.337 302.441 514.185 304.643C521.469 308.81 533.483 308.71 540.887 304.423C544.403 302.385 546.249 299.743 546.426 297.069H546.442V292.265L544.876 292.277V292.269Z" fill="#CCBB1F"/>
<path d="M540.891 284.931C533.487 280.684 521.469 280.784 514.189 285.151C506.905 289.519 506.905 296.5 514.189 300.668C521.473 304.835 533.487 304.735 540.891 300.447C548.296 296.16 548.296 289.178 540.891 284.931Z" fill="#DDCF22"/>
<path d="M538.489 286.344C532.422 282.861 522.57 282.945 516.604 286.524C510.633 290.103 510.633 295.828 516.604 299.242C522.574 302.657 532.422 302.577 538.489 299.062C544.555 295.548 544.555 289.827 538.489 286.344Z" fill="#C1B121"/>
<path d="M526.903 295.095V293.03C525.634 292.845 524.701 292.569 524.108 292.193C523.516 291.821 523.219 291.368 523.219 290.836C523.219 290.303 523.556 289.843 524.224 289.479C524.893 289.114 525.786 288.902 526.899 288.846V288.358H528.309V288.846C529.338 288.91 530.159 289.086 530.768 289.379C531.377 289.671 531.765 290.067 531.933 290.56L529.474 290.724C529.326 290.335 528.938 290.075 528.309 289.935V291.861C529.863 292.073 530.924 292.349 531.485 292.689C532.049 293.03 532.33 293.466 532.33 293.998C532.33 294.591 531.973 295.095 531.264 295.499C530.556 295.904 529.57 296.156 528.305 296.248V297.169H526.895V296.272C525.774 296.204 524.865 295.992 524.164 295.636C523.464 295.279 523.019 294.779 522.823 294.134L525.358 293.998C525.462 294.262 525.654 294.487 525.942 294.679C526.227 294.871 526.543 295.007 526.895 295.091L526.903 295.095ZM526.903 289.923C526.523 289.987 526.219 290.099 525.99 290.259C525.762 290.415 525.65 290.592 525.65 290.78C525.65 290.952 525.754 291.116 525.962 291.264C526.171 291.412 526.483 291.532 526.903 291.624V289.919V289.923ZM528.313 295.163C528.798 295.119 529.194 295.003 529.498 294.823C529.803 294.639 529.955 294.427 529.955 294.178C529.955 293.958 529.827 293.77 529.57 293.61C529.314 293.45 528.894 293.33 528.313 293.242V295.163Z" fill="#EFDB22"/>
<path d="M544.876 285.88C543.955 284.655 542.625 283.506 540.887 282.513C533.483 278.266 521.465 278.366 514.185 282.733C512.503 283.742 511.214 284.887 510.308 286.108L508.743 286.12V290.091C508.522 293.066 510.337 296.052 514.185 298.254C521.469 302.421 533.483 302.321 540.887 298.033C544.403 295.996 546.249 293.354 546.426 290.68H546.442V285.876L544.876 285.888V285.88Z" fill="#CCBB1F"/>
<path d="M540.891 278.538C533.487 274.29 521.469 274.391 514.189 278.758C506.905 283.126 506.905 290.107 514.189 294.274C521.473 298.442 533.487 298.342 540.891 294.054C548.296 289.767 548.296 282.785 540.891 278.538Z" fill="#DDCF22"/>
<path d="M538.489 279.951C532.422 276.468 522.57 276.552 516.604 280.131C510.633 283.71 510.633 289.435 516.604 292.849C522.574 296.264 532.422 296.184 538.489 292.669C544.555 289.154 544.555 283.434 538.489 279.951Z" fill="#C1B121"/>
<path d="M526.903 288.706V286.64C525.634 286.456 524.701 286.18 524.108 285.804C523.516 285.427 523.219 284.979 523.219 284.447C523.219 283.914 523.556 283.454 524.224 283.09C524.893 282.725 525.786 282.513 526.899 282.457V281.969H528.309V282.457C529.338 282.521 530.159 282.697 530.768 282.989C531.377 283.282 531.765 283.678 531.933 284.17L529.474 284.335C529.326 283.946 528.938 283.686 528.309 283.546V285.471C529.863 285.684 530.924 285.96 531.485 286.3C532.049 286.64 532.33 287.077 532.33 287.609C532.33 288.202 531.973 288.706 531.264 289.11C530.556 289.519 529.57 289.767 528.305 289.859V290.78H526.895V289.883C525.774 289.815 524.865 289.603 524.164 289.246C523.464 288.89 523.019 288.39 522.823 287.745L525.358 287.609C525.462 287.873 525.654 288.098 525.942 288.29C526.227 288.482 526.543 288.618 526.895 288.702L526.903 288.706ZM526.903 283.534C526.523 283.598 526.219 283.71 525.99 283.87C525.762 284.026 525.65 284.202 525.65 284.391C525.65 284.563 525.754 284.727 525.962 284.875C526.171 285.023 526.483 285.143 526.903 285.235V283.53V283.534ZM528.313 288.774C528.798 288.73 529.194 288.614 529.498 288.43C529.803 288.246 529.955 288.033 529.955 287.785C529.955 287.565 529.827 287.377 529.57 287.217C529.314 287.057 528.894 286.937 528.313 286.849V288.77V288.774Z" fill="#EFDB22"/>
<path d="M582.595 325.251C581.674 324.026 580.344 322.877 578.606 321.884C571.202 317.637 559.184 317.737 551.904 322.105C550.222 323.113 548.932 324.258 548.027 325.479L546.461 325.491V329.463C546.241 332.437 548.055 335.423 551.904 337.625C559.188 341.792 571.202 341.692 578.606 337.405C582.122 335.367 583.968 332.725 584.144 330.051H584.16V325.247L582.595 325.259V325.251Z" fill="#CCBB1F"/>
<path d="M578.61 317.913C571.206 313.666 559.188 313.766 551.908 318.134C544.624 322.501 544.624 329.483 551.908 333.65C559.192 337.817 571.206 337.717 578.61 333.43C586.015 329.142 586.015 322.161 578.61 317.913Z" fill="#DDCF22"/>
<path d="M576.207 319.326C570.14 315.844 560.289 315.928 554.322 319.507C548.352 323.085 548.352 328.81 554.322 332.225C560.293 335.639 570.14 335.559 576.207 332.045C582.274 328.53 582.274 322.809 576.207 319.326Z" fill="#C1B121"/>
<path d="M564.622 328.077V326.012C563.353 325.828 562.42 325.551 561.827 325.175C561.234 324.803 560.938 324.35 560.938 323.818C560.938 323.286 561.274 322.825 561.943 322.461C562.612 322.097 563.505 321.885 564.618 321.828V321.34H566.028V321.828C567.057 321.893 567.878 322.069 568.487 322.361C569.095 322.653 569.484 323.049 569.652 323.542L567.193 323.706C567.045 323.318 566.656 323.057 566.028 322.917V324.843C567.581 325.055 568.643 325.331 569.203 325.672C569.768 326.012 570.048 326.448 570.048 326.981C570.048 327.573 569.692 328.077 568.983 328.482C568.274 328.886 567.289 329.138 566.024 329.23V330.151H564.614V329.254C563.493 329.186 562.584 328.974 561.883 328.618C561.182 328.262 560.738 327.761 560.542 327.117L563.076 326.981C563.18 327.245 563.373 327.469 563.661 327.661C563.945 327.853 564.262 327.989 564.614 328.073L564.622 328.077ZM564.622 322.905C564.242 322.969 563.937 323.081 563.709 323.242C563.481 323.398 563.369 323.574 563.369 323.762C563.369 323.934 563.473 324.098 563.681 324.246C563.889 324.395 564.202 324.515 564.622 324.607V322.901V322.905ZM566.032 328.146C566.516 328.101 566.913 327.985 567.217 327.805C567.521 327.621 567.674 327.409 567.674 327.161C567.674 326.941 567.545 326.752 567.289 326.592C567.033 326.432 566.612 326.312 566.032 326.224V328.146Z" fill="#EFDB22"/>
<path d="M586.864 301.252C585.942 300.027 584.613 298.878 582.875 297.885C575.471 293.638 563.453 293.738 556.173 298.106C554.491 299.114 553.201 300.259 552.296 301.48L550.73 301.492V305.463C550.51 308.438 552.324 311.424 556.173 313.626C563.457 317.793 575.471 317.693 582.875 313.406C586.391 311.368 588.237 308.726 588.413 306.052H588.429V301.244L586.864 301.256V301.252Z" fill="#CCBB1F"/>
<path d="M582.875 293.914C575.471 289.667 563.453 289.767 556.173 294.134C548.888 298.502 548.888 305.483 556.173 309.651C563.457 313.818 575.471 313.718 582.875 309.431C590.28 305.143 590.28 298.162 582.875 293.914Z" fill="#DDCF22"/>
<path d="M580.476 295.327C574.409 291.849 564.558 291.929 558.591 295.507C552.621 299.086 552.621 304.811 558.591 308.226C564.562 311.64 574.409 311.56 580.476 308.045C586.543 304.531 586.543 298.81 580.476 295.327Z" fill="#C1B121"/>
<path d="M568.887 304.078V302.013C567.618 301.829 566.685 301.552 566.092 301.176C565.499 300.804 565.203 300.351 565.203 299.819C565.203 299.286 565.539 298.826 566.208 298.462C566.877 298.098 567.77 297.885 568.883 297.829V297.341H570.293V297.829C571.322 297.893 572.143 298.07 572.752 298.362C573.36 298.654 573.749 299.05 573.917 299.543L571.458 299.707C571.31 299.319 570.921 299.058 570.293 298.918V300.844C571.847 301.056 572.908 301.332 573.468 301.672C574.033 302.013 574.313 302.449 574.313 302.981C574.313 303.574 573.957 304.078 573.248 304.483C572.539 304.891 571.554 305.139 570.289 305.231V306.152H568.879V305.255C567.758 305.187 566.849 304.975 566.148 304.619C565.447 304.262 565.003 303.762 564.807 303.118L567.341 302.981C567.446 303.246 567.638 303.47 567.926 303.662C568.21 303.854 568.527 303.99 568.879 304.074L568.887 304.078ZM568.887 298.906C568.507 298.97 568.202 299.082 567.974 299.242C567.746 299.399 567.634 299.575 567.634 299.763C567.634 299.935 567.738 300.099 567.946 300.247C568.154 300.395 568.467 300.515 568.887 300.608V298.902V298.906ZM570.297 304.146C570.781 304.102 571.178 303.986 571.482 303.802C571.786 303.618 571.939 303.406 571.939 303.158C571.939 302.937 571.81 302.749 571.554 302.589C571.298 302.429 570.877 302.309 570.297 302.221V304.142V304.146Z" fill="#EFDB22"/>
<path d="M586.864 294.863C585.942 293.638 584.613 292.489 582.875 291.496C575.471 287.249 563.453 287.349 556.173 291.716C554.491 292.725 553.201 293.87 552.296 295.091L550.73 295.103V299.074C550.51 302.049 552.324 305.035 556.173 307.237C563.457 311.404 575.471 311.304 582.875 307.017C586.391 304.979 588.237 302.337 588.413 299.663H588.429V294.855L586.864 294.867V294.863Z" fill="#CCBB1F"/>
<path d="M582.875 287.521C575.471 283.274 563.453 283.374 556.173 287.741C548.888 292.109 548.888 299.09 556.173 303.258C563.457 307.425 575.471 307.325 582.875 303.037C590.28 298.75 590.28 291.768 582.875 287.521Z" fill="#DDCF22"/>
<path d="M580.476 288.934C574.409 285.451 564.558 285.536 558.591 289.114C552.621 292.693 552.621 298.418 558.591 301.832C564.562 305.247 574.409 305.167 580.476 301.652C586.543 298.138 586.543 292.417 580.476 288.934Z" fill="#C1B121"/>
<path d="M568.887 297.685V295.62C567.618 295.435 566.685 295.159 566.092 294.783C565.499 294.411 565.203 293.958 565.203 293.426C565.203 292.893 565.539 292.433 566.208 292.069C566.877 291.704 567.77 291.492 568.883 291.436V290.948H570.293V291.436C571.322 291.5 572.143 291.676 572.752 291.969C573.36 292.261 573.749 292.657 573.917 293.15L571.458 293.314C571.31 292.925 570.921 292.665 570.293 292.525V294.451C571.847 294.663 572.908 294.939 573.468 295.279C574.029 295.62 574.313 296.056 574.313 296.588C574.313 297.181 573.957 297.685 573.248 298.09C572.539 298.498 571.554 298.746 570.289 298.838V299.759H568.879V298.862C567.758 298.794 566.849 298.582 566.148 298.226C565.447 297.869 565.003 297.369 564.807 296.724L567.341 296.588C567.446 296.853 567.638 297.077 567.926 297.269C568.21 297.461 568.527 297.597 568.879 297.681L568.887 297.685ZM568.887 292.517C568.507 292.581 568.202 292.693 567.974 292.853C567.746 293.009 567.634 293.186 567.634 293.374C567.634 293.546 567.738 293.71 567.946 293.858C568.154 294.006 568.467 294.126 568.887 294.218V292.513V292.517ZM570.297 297.757C570.781 297.713 571.178 297.597 571.482 297.417C571.786 297.233 571.939 297.021 571.939 296.772C571.939 296.552 571.81 296.364 571.554 296.204C571.298 296.044 570.877 295.924 570.297 295.836V297.757Z" fill="#EFDB22"/>
<path d="M586.864 288.29C585.942 287.065 584.613 285.916 582.875 284.923C575.471 280.676 563.453 280.776 556.173 285.143C554.491 286.152 553.201 287.297 552.296 288.518L550.73 288.53V292.501C550.51 295.475 552.324 298.462 556.173 300.664C563.457 304.831 575.471 304.731 582.875 300.443C586.391 298.406 588.237 295.764 588.413 293.09H588.429V288.286L586.864 288.298V288.29Z" fill="#CCBB1F"/>
<path d="M582.875 280.952C575.471 276.704 563.453 276.805 556.173 281.172C548.888 285.539 548.888 292.521 556.173 296.688C563.457 300.856 575.471 300.756 582.875 296.468C590.28 292.181 590.28 285.199 582.875 280.952Z" fill="#DDCF22"/>
<path d="M580.476 282.365C574.409 278.882 564.558 278.966 558.591 282.545C552.621 286.124 552.621 291.848 558.591 295.263C564.562 298.678 574.409 298.598 580.476 295.083C586.543 291.568 586.543 285.848 580.476 282.365Z" fill="#C1B121"/>
<path d="M568.887 291.116V289.05C567.618 288.866 566.685 288.59 566.092 288.214C565.499 287.841 565.203 287.389 565.203 286.857C565.203 286.324 565.539 285.864 566.208 285.499C566.877 285.135 567.77 284.923 568.883 284.867V284.379H570.293V284.867C571.322 284.931 572.143 285.107 572.752 285.399C573.36 285.692 573.749 286.088 573.917 286.58L571.458 286.744C571.31 286.356 570.921 286.096 570.293 285.956V287.881C571.847 288.094 572.908 288.37 573.468 288.71C574.033 289.05 574.313 289.487 574.313 290.019C574.313 290.612 573.957 291.116 573.248 291.52C572.539 291.929 571.554 292.177 570.289 292.269V293.19H568.879V292.293C567.758 292.225 566.849 292.013 566.148 291.656C565.447 291.3 565.003 290.8 564.807 290.155L567.341 290.019C567.446 290.283 567.638 290.507 567.926 290.7C568.21 290.892 568.527 291.028 568.879 291.112L568.887 291.116ZM568.887 285.948C568.507 286.012 568.202 286.124 567.974 286.284C567.746 286.44 567.634 286.616 567.634 286.805C567.634 286.977 567.738 287.141 567.946 287.289C568.154 287.437 568.467 287.557 568.887 287.649V285.944V285.948ZM570.297 291.188C570.781 291.144 571.178 291.028 571.482 290.844C571.786 290.66 571.939 290.447 571.939 290.199C571.939 289.979 571.81 289.791 571.554 289.631C571.298 289.471 570.877 289.351 570.297 289.262V291.184V291.188Z" fill="#EFDB22"/>
<path d="M582.595 318.858C581.674 317.633 580.344 316.484 578.606 315.491C571.202 311.244 559.184 311.344 551.904 315.711C550.222 316.72 548.932 317.865 548.027 319.086L546.461 319.098V323.069C546.241 326.044 548.055 329.03 551.904 331.232C559.188 335.399 571.202 335.299 578.606 331.012C582.122 328.974 583.968 326.332 584.144 323.658H584.16V318.854L582.595 318.866V318.858Z" fill="#CCBB1F"/>
<path d="M578.61 311.52C571.206 307.273 559.188 307.373 551.908 311.74C544.624 316.108 544.624 323.089 551.908 327.257C559.192 331.424 571.206 331.324 578.61 327.037C586.015 322.749 586.015 315.768 578.61 311.52Z" fill="#DDCF22"/>
<path d="M576.207 312.933C570.14 309.451 560.289 309.535 554.322 313.113C548.352 316.692 548.352 322.417 554.322 325.832C560.293 329.246 570.14 329.166 576.207 325.651C582.274 322.137 582.274 316.416 576.207 312.933Z" fill="#C1B121"/>
<path d="M564.622 321.684V319.619C563.353 319.434 562.42 319.158 561.827 318.782C561.234 318.41 560.938 317.957 560.938 317.425C560.938 316.892 561.274 316.432 561.943 316.068C562.612 315.703 563.505 315.491 564.618 315.435V314.947H566.028V315.435C567.057 315.499 567.878 315.675 568.487 315.968C569.095 316.26 569.484 316.656 569.652 317.149L567.193 317.313C567.045 316.924 566.656 316.664 566.028 316.524V318.45C567.581 318.662 568.643 318.938 569.203 319.278C569.768 319.619 570.048 320.055 570.048 320.587C570.048 321.18 569.692 321.684 568.983 322.089C568.274 322.497 567.289 322.745 566.024 322.837V323.758H564.614V322.861C563.493 322.793 562.584 322.581 561.883 322.225C561.182 321.868 560.738 321.368 560.542 320.723L563.076 320.587C563.18 320.852 563.373 321.076 563.661 321.268C563.945 321.46 564.262 321.596 564.614 321.68L564.622 321.684ZM564.622 316.512C564.242 316.576 563.937 316.688 563.709 316.848C563.481 317.005 563.369 317.181 563.369 317.369C563.369 317.541 563.473 317.705 563.681 317.853C563.889 318.001 564.202 318.121 564.622 318.214V316.508V316.512ZM566.032 321.756C566.516 321.712 566.913 321.596 567.217 321.412C567.521 321.228 567.674 321.016 567.674 320.768C567.674 320.547 567.545 320.359 567.289 320.199C567.033 320.039 566.612 319.919 566.032 319.831V321.752V321.756Z" fill="#EFDB22"/>
<path d="M626.132 325.319C625.211 324.094 623.882 322.945 622.144 321.953C614.739 317.705 602.721 317.805 595.441 322.173C593.759 323.182 592.47 324.326 591.565 325.547L589.999 325.559V329.531C589.779 332.505 591.593 335.491 595.441 337.693C602.725 341.86 614.739 341.76 622.144 337.473C625.66 335.435 627.506 332.793 627.682 330.119H627.698V325.315L626.132 325.327V325.319Z" fill="#CCBB1F"/>
<path d="M622.144 317.981C614.739 313.734 602.722 313.834 595.441 318.202C588.157 322.569 588.157 329.551 595.441 333.718C602.726 337.885 614.739 337.785 622.144 333.498C629.548 329.21 629.548 322.229 622.144 317.981Z" fill="#DDCF22"/>
<path d="M619.745 319.394C613.678 315.912 603.827 315.996 597.86 319.575C591.889 323.153 591.889 328.878 597.86 332.293C603.831 335.707 613.678 335.627 619.745 332.113C625.812 328.598 625.812 322.877 619.745 319.394Z" fill="#C1B121"/>
<path d="M608.156 328.145V326.08C606.886 325.896 605.953 325.619 605.361 325.243C604.768 324.867 604.472 324.418 604.472 323.886C604.472 323.354 604.808 322.893 605.477 322.529C606.145 322.165 607.038 321.953 608.152 321.896V321.408H609.561V321.896C610.591 321.961 611.411 322.137 612.02 322.429C612.629 322.721 613.017 323.117 613.185 323.61L610.727 323.774C610.578 323.386 610.19 323.125 609.561 322.985V324.911C611.115 325.123 612.176 325.399 612.737 325.74C613.302 326.08 613.582 326.516 613.582 327.049C613.582 327.641 613.226 328.145 612.517 328.55C611.808 328.954 610.823 329.206 609.557 329.298V330.219H608.148V329.322C607.026 329.254 606.117 329.042 605.417 328.686C604.716 328.33 604.271 327.829 604.075 327.185L606.61 327.049C606.714 327.313 606.906 327.537 607.195 327.729C607.479 327.921 607.795 328.057 608.148 328.141L608.156 328.145ZM608.156 322.973C607.775 323.037 607.471 323.149 607.243 323.31C607.014 323.466 606.902 323.642 606.902 323.83C606.902 324.002 607.006 324.166 607.215 324.314C607.423 324.463 607.735 324.583 608.156 324.675V322.969V322.973ZM609.565 328.218C610.05 328.173 610.446 328.057 610.751 327.873C611.055 327.689 611.207 327.477 611.207 327.229C611.207 327.009 611.079 326.82 610.823 326.66C610.566 326.5 610.146 326.38 609.565 326.292V328.214V328.218Z" fill="#EFDB22"/>
<path d="M626.132 318.93C625.211 317.705 623.882 316.556 622.144 315.563C614.739 311.316 602.721 311.416 595.441 315.784C593.759 316.792 592.47 317.937 591.565 319.158L589.999 319.17V323.141C589.779 326.116 591.593 329.102 595.441 331.304C602.725 335.471 614.739 335.371 622.144 331.084C625.66 329.046 627.506 326.404 627.682 323.73H627.698V318.922L626.132 318.934V318.93Z" fill="#CCBB1F"/>
<path d="M622.144 311.588C614.739 307.341 602.722 307.441 595.441 311.808C588.157 316.176 588.157 323.157 595.441 327.325C602.726 331.492 614.739 331.392 622.144 327.105C629.548 322.817 629.548 315.836 622.144 311.588Z" fill="#DDCF22"/>
<path d="M619.745 313.005C613.678 309.523 603.827 309.607 597.86 313.186C591.889 316.764 591.889 322.489 597.86 325.904C603.831 329.318 613.678 329.238 619.745 325.724C625.812 322.209 625.812 316.488 619.745 313.005Z" fill="#C1B121"/>
<path d="M608.156 321.756V319.691C606.886 319.507 605.953 319.23 605.361 318.854C604.768 318.478 604.472 318.029 604.472 317.497C604.472 316.965 604.808 316.504 605.477 316.14C606.145 315.776 607.038 315.563 608.152 315.507V315.019H609.561V315.507C610.591 315.571 611.411 315.748 612.02 316.04C612.629 316.332 613.017 316.728 613.185 317.221L610.727 317.385C610.578 316.997 610.19 316.736 609.561 316.596V318.522C611.115 318.734 612.176 319.01 612.737 319.35C613.302 319.691 613.582 320.127 613.582 320.659C613.582 321.252 613.226 321.756 612.517 322.161C611.808 322.565 610.823 322.817 609.557 322.909V323.83H608.148V322.933C607.026 322.865 606.117 322.653 605.417 322.297C604.716 321.94 604.271 321.44 604.075 320.796L606.61 320.659C606.714 320.924 606.906 321.148 607.195 321.34C607.479 321.532 607.795 321.668 608.148 321.752L608.156 321.756ZM608.156 316.584C607.775 316.648 607.471 316.76 607.243 316.92C607.014 317.077 606.902 317.253 606.902 317.441C606.902 317.613 607.006 317.777 607.215 317.925C607.423 318.073 607.735 318.194 608.156 318.286V316.58V316.584ZM609.565 321.824C610.05 321.78 610.446 321.664 610.751 321.48C611.055 321.296 611.207 321.084 611.207 320.836C611.207 320.615 611.079 320.427 610.823 320.267C610.566 320.107 610.146 319.987 609.565 319.899V321.82V321.824Z" fill="#EFDB22"/>
<path d="M618.4 356.464C617.478 355.239 616.149 354.09 614.411 353.097C607.007 348.85 594.989 348.95 587.709 353.317C586.027 354.326 584.737 355.471 583.832 356.692L582.266 356.704V360.675C582.046 363.65 583.86 366.636 587.709 368.838C594.993 373.005 607.007 372.905 614.411 368.618C617.927 366.58 619.773 363.938 619.949 361.264H619.965V356.46L618.4 356.472V356.464Z" fill="#CCBB1F"/>
<path d="M614.411 349.122C607.007 344.875 594.989 344.975 587.709 349.342C580.424 353.71 580.424 360.691 587.709 364.859C594.993 369.026 607.007 368.926 614.411 364.639C621.815 360.351 621.815 353.37 614.411 349.122Z" fill="#DDCF22"/>
<path d="M612.012 350.535C605.945 347.053 596.094 347.137 590.127 350.715C584.156 354.294 584.156 360.019 590.127 363.434C596.098 366.848 605.945 366.768 612.012 363.253C618.079 359.739 618.079 354.018 612.012 350.535Z" fill="#C1B121"/>
<path d="M600.423 359.29V357.225C599.154 357.04 598.221 356.764 597.628 356.388C597.035 356.016 596.739 355.563 596.739 355.031C596.739 354.498 597.075 354.038 597.744 353.674C598.413 353.309 599.306 353.097 600.419 353.041V352.553H601.829V353.041C602.858 353.105 603.679 353.281 604.287 353.574C604.896 353.866 605.285 354.262 605.453 354.755L602.994 354.919C602.846 354.53 602.457 354.27 601.829 354.13V356.056C603.382 356.268 604.444 356.544 605.004 356.884C605.569 357.225 605.849 357.661 605.849 358.193C605.849 358.786 605.493 359.29 604.784 359.695C604.075 360.099 603.09 360.351 601.825 360.443V361.364H600.415V360.467C599.294 360.399 598.385 360.187 597.684 359.831C596.983 359.474 596.539 358.974 596.342 358.329L598.877 358.193C598.981 358.458 599.174 358.682 599.462 358.874C599.746 359.066 600.063 359.202 600.415 359.286L600.423 359.29ZM600.423 354.118C600.043 354.182 599.738 354.294 599.51 354.454C599.282 354.61 599.17 354.787 599.17 354.975C599.17 355.147 599.274 355.311 599.482 355.459C599.69 355.607 600.003 355.727 600.423 355.819V354.114V354.118ZM601.833 359.358C602.317 359.314 602.714 359.198 603.018 359.014C603.322 358.83 603.474 358.618 603.474 358.37C603.474 358.149 603.346 357.961 603.09 357.801C602.834 357.641 602.413 357.521 601.833 357.433V359.354V359.358Z" fill="#EFDB22"/>
<path d="M618.4 350.071C617.478 348.846 616.149 347.697 614.411 346.704C607.007 342.457 594.989 342.557 587.709 346.924C586.027 347.933 584.737 349.078 583.832 350.299L582.266 350.311V354.282C582.046 357.257 583.86 360.243 587.709 362.445C594.993 366.612 607.007 366.512 614.411 362.225C617.927 360.187 619.773 357.545 619.949 354.871H619.965V350.063L618.4 350.075V350.071Z" fill="#CCBB1F"/>
<path d="M614.411 342.733C607.007 338.486 594.989 338.586 587.709 342.953C580.424 347.321 580.424 354.302 587.709 358.47C594.993 362.637 607.007 362.537 614.411 358.249C621.815 353.962 621.815 346.98 614.411 342.733Z" fill="#DDCF22"/>
<path d="M612.012 344.146C605.945 340.663 596.094 340.747 590.127 344.326C584.156 347.905 584.156 353.63 590.127 357.044C596.098 360.459 605.945 360.379 612.012 356.864C618.079 353.349 618.079 347.629 612.012 344.146Z" fill="#C1B121"/>
<path d="M600.423 352.897V350.832C599.154 350.647 598.221 350.371 597.628 349.995C597.035 349.623 596.739 349.17 596.739 348.638C596.739 348.105 597.075 347.645 597.744 347.281C598.413 346.916 599.306 346.704 600.419 346.648V346.16H601.829V346.648C602.858 346.712 603.679 346.888 604.287 347.181C604.896 347.473 605.285 347.869 605.453 348.362L602.994 348.526C602.846 348.137 602.457 347.877 601.829 347.737V349.663C603.382 349.875 604.444 350.151 605.004 350.491C605.569 350.832 605.849 351.268 605.849 351.8C605.849 352.393 605.493 352.897 604.784 353.301C604.075 353.706 603.09 353.958 601.825 354.05V354.971H600.415V354.074C599.294 354.006 598.385 353.794 597.684 353.438C596.983 353.081 596.539 352.581 596.342 351.936L598.877 351.8C598.981 352.064 599.174 352.289 599.462 352.481C599.746 352.673 600.063 352.809 600.415 352.893L600.423 352.897ZM600.423 347.725C600.043 347.789 599.738 347.901 599.51 348.061C599.282 348.217 599.17 348.394 599.17 348.582C599.17 348.754 599.274 348.918 599.482 349.066C599.69 349.214 600.003 349.334 600.423 349.426V347.721V347.725ZM601.833 352.965C602.317 352.921 602.714 352.805 603.018 352.625C603.322 352.441 603.474 352.229 603.474 351.98C603.474 351.76 603.346 351.572 603.09 351.412C602.834 351.252 602.413 351.132 601.833 351.044V352.965Z" fill="#EFDB22"/>
<path d="M618.4 343.698C617.478 342.473 616.149 341.324 614.411 340.331C607.007 336.084 594.989 336.184 587.709 340.551C586.027 341.56 584.737 342.705 583.832 343.926L582.266 343.938V347.909C582.046 350.884 583.86 353.87 587.709 356.072C594.993 360.239 607.007 360.139 614.411 355.852C617.927 353.814 619.773 351.172 619.949 348.498H619.965V343.694L618.4 343.706V343.698Z" fill="#CCBB1F"/>
<path d="M614.411 336.356C607.007 332.109 594.989 332.209 587.709 336.576C580.424 340.944 580.424 347.925 587.709 352.093C594.993 356.26 607.007 356.16 614.411 351.872C621.815 347.585 621.815 340.603 614.411 336.356Z" fill="#DDCF22"/>
<path d="M612.012 337.769C605.945 334.286 596.094 334.37 590.127 337.949C584.156 341.528 584.156 347.253 590.127 350.667C596.098 354.082 605.945 354.002 612.012 350.487C618.079 346.972 618.079 341.252 612.012 337.769Z" fill="#C1B121"/>
<path d="M600.423 346.524V344.458C599.154 344.274 598.221 343.998 597.628 343.622C597.035 343.246 596.739 342.797 596.739 342.265C596.739 341.732 597.075 341.272 597.744 340.908C598.413 340.543 599.306 340.331 600.419 340.275V339.787H601.829V340.275C602.858 340.339 603.679 340.515 604.287 340.812C604.896 341.104 605.285 341.5 605.453 341.993L602.994 342.157C602.846 341.768 602.457 341.508 601.829 341.368V343.294C603.382 343.506 604.444 343.782 605.004 344.122C605.569 344.462 605.849 344.899 605.849 345.431C605.849 346.024 605.493 346.528 604.784 346.932C604.075 347.337 603.09 347.589 601.825 347.681V348.602H600.415V347.705C599.294 347.637 598.385 347.425 597.684 347.069C596.983 346.712 596.539 346.212 596.342 345.567L598.877 345.431C598.981 345.695 599.174 345.92 599.462 346.112C599.746 346.304 600.063 346.44 600.415 346.524H600.423ZM600.423 341.352C600.043 341.416 599.738 341.528 599.51 341.688C599.282 341.844 599.17 342.021 599.17 342.209C599.17 342.381 599.274 342.545 599.482 342.693C599.69 342.841 600.003 342.961 600.423 343.053V341.348V341.352ZM601.833 346.592C602.317 346.548 602.714 346.432 603.018 346.252C603.322 346.068 603.474 345.856 603.474 345.607C603.474 345.387 603.346 345.199 603.09 345.039C602.834 344.879 602.413 344.759 601.833 344.671V346.592Z" fill="#EFDB22"/>
<path d="M618.4 337.305C617.478 336.08 616.149 334.931 614.411 333.938C607.007 329.691 594.989 329.791 587.709 334.158C586.027 335.167 584.737 336.312 583.832 337.533L582.266 337.545V341.516C582.046 344.49 583.86 347.477 587.709 349.679C594.993 353.846 607.007 353.746 614.411 349.458C617.927 347.421 619.773 344.779 619.949 342.105H619.965V337.301L618.4 337.313V337.305Z" fill="#CCBB1F"/>
<path d="M614.411 329.967C607.007 325.72 594.989 325.82 587.709 330.187C580.424 334.555 580.424 341.536 587.709 345.703C594.993 349.871 607.007 349.771 614.411 345.483C621.815 341.196 621.815 334.214 614.411 329.967Z" fill="#DDCF22"/>
<path d="M612.012 331.38C605.945 327.897 596.094 327.981 590.127 331.56C584.156 335.139 584.156 340.864 590.127 344.278C596.098 347.693 605.945 347.613 612.012 344.098C618.079 340.583 618.079 334.863 612.012 331.38Z" fill="#C1B121"/>
<path d="M600.423 340.131V338.065C599.154 337.881 598.221 337.605 597.628 337.229C597.035 336.852 596.739 336.404 596.739 335.872C596.739 335.339 597.075 334.879 597.744 334.515C598.413 334.15 599.306 333.938 600.419 333.882V333.394H601.829V333.882C602.858 333.946 603.679 334.122 604.287 334.414C604.896 334.707 605.285 335.103 605.453 335.595L602.994 335.76C602.846 335.371 602.457 335.111 601.829 334.971V336.896C603.382 337.109 604.444 337.385 605.004 337.725C605.569 338.065 605.849 338.502 605.849 339.034C605.849 339.627 605.493 340.131 604.784 340.535C604.075 340.94 603.09 341.192 601.825 341.284V342.205H600.415V341.308C599.294 341.24 598.385 341.028 597.684 340.671C596.983 340.315 596.539 339.815 596.342 339.17L598.877 339.034C598.981 339.298 599.174 339.523 599.462 339.715C599.746 339.907 600.063 340.043 600.415 340.127L600.423 340.131ZM600.423 334.959C600.043 335.023 599.738 335.135 599.51 335.295C599.282 335.451 599.17 335.627 599.17 335.816C599.17 335.988 599.274 336.152 599.482 336.3C599.69 336.448 600.003 336.568 600.423 336.66V334.955V334.959ZM601.833 340.199C602.317 340.155 602.714 340.039 603.018 339.855C603.322 339.671 603.474 339.458 603.474 339.21C603.474 338.99 603.346 338.802 603.09 338.642C602.834 338.482 602.413 338.362 601.833 338.274V340.195V340.199Z" fill="#EFDB22"/>
<path d="M614.139 418.509L512.875 477.248L504.053 472.436L605.745 413.91L614.139 418.509Z" fill="#4B3E90"/>
<path d="M512.875 477.248V487.028L614.139 428.501V418.509L512.875 477.248Z" fill="#3B357A"/>
<path d="M512.875 477.248L491.703 492L504.053 472.436L512.875 477.248Z" fill="#EFEFEF"/>
<path d="M491.703 492L512.875 487.028V477.248L491.703 492Z" fill="#BFBFBF"/>
<path d="M494.242 487.973L496.084 488.946L491.703 492L494.242 487.973Z" fill="#49453D"/>
<path d="M496.084 488.946V490.971L491.703 492L496.084 488.946Z" fill="#38352F"/>
<path d="M614.139 418.509L616.934 416.876V426.86L614.139 428.501V418.509Z" fill="#282622"/>
<path d="M616.934 416.876L608.712 412.148L605.745 413.91L614.139 418.509L616.934 416.876Z" fill="#38352F"/>
<path d="M616.934 416.876L622.668 413.59V423.573L616.934 426.86V416.876Z" fill="#CE5D09"/>
<path d="M622.668 413.59L614.139 408.782L608.712 412.148L616.934 416.876L622.668 413.59Z" fill="#F97C0B"/>
<path d="M505.723 140.944C505.723 128.31 496.889 112.926 486.089 106.765C475.289 100.6 466.455 105.768 466.455 118.25C466.455 130.732 475.289 146.112 486.089 152.429C496.889 158.746 505.723 153.578 505.723 140.944Z" fill="#7E1ACE"/>
<path d="M480.162 129.195C480.162 129.195 477.856 130.808 477.207 134.303L495.219 143.03C495.219 143.03 494.154 137.065 492.452 135.732L480.162 129.195Z" fill="#EBFBFF"/>
<path d="M493.662 124.587C493.982 128.598 491.735 132.049 488.648 132.297C485.556 132.546 482.793 129.491 482.473 125.48C482.152 121.469 484.399 118.018 487.486 117.77C490.578 117.522 493.341 120.576 493.662 124.587Z" fill="#EBFBFF"/>
<path d="M111.407 137.658C111.407 126.757 119.027 113.49 128.342 108.174C137.657 102.858 145.277 107.317 145.277 118.082C145.277 128.847 137.657 142.117 128.342 147.566C119.027 153.014 111.407 148.554 111.407 137.658Z" fill="#F97C0B"/>
<path d="M133.46 127.522C133.46 127.522 135.45 128.915 136.007 131.929L120.469 139.455C120.469 139.455 121.386 134.311 122.856 133.158L133.456 127.518L133.46 127.522Z" fill="#EBFBFF"/>
<path d="M131.463 124.317C131.74 120.857 129.803 117.879 127.138 117.666C124.473 117.453 122.088 120.086 121.811 123.546C121.534 127.006 123.471 129.984 126.136 130.196C128.802 130.409 131.187 127.777 131.463 124.317Z" fill="#EBFBFF"/>
<path d="M505.723 195.452C505.723 182.818 496.889 167.433 486.089 161.272C475.289 155.108 466.455 160.276 466.455 172.758C466.455 185.24 475.289 200.62 486.089 206.937C496.889 213.254 505.723 208.086 505.723 195.452Z" fill="#7E1ACE"/>
<path d="M480.162 183.702C480.162 183.702 477.856 185.316 477.207 188.81L495.219 197.537C495.219 197.537 494.154 191.573 492.452 190.24L480.162 183.702Z" fill="#EBFBFF"/>
<path d="M493.662 179.095C493.982 183.106 491.735 186.557 488.648 186.805C485.556 187.053 482.793 183.999 482.473 179.987C482.152 175.976 484.399 172.525 487.486 172.277C490.578 172.029 493.341 175.083 493.662 179.095Z" fill="#EBFBFF"/>
<path d="M275.646 337.669C275.646 337.669 270.007 333.153 267.468 332.937C267.468 332.937 266.307 332.721 265.963 333.41C265.963 333.41 265.49 334.142 266.435 334.699C266.435 334.699 264.285 336.332 258.094 330.787C258.094 330.787 256.976 330.271 256.804 330.787C256.804 330.787 255.771 331.892 257.233 334.114C257.233 334.114 260.973 341.88 272.154 342.569L274 343.43L275.642 337.673L275.646 337.669Z" fill="#FDD19C"/>
<path d="M330.496 458.761C330.496 458.761 329.951 464.954 330.296 466.199C330.296 466.199 327.973 471.444 327.845 473.293C327.845 473.293 327.328 478.453 331.413 478.453C331.413 478.453 338.381 478.365 339.41 473.253C339.41 473.253 340.527 467.621 340.143 466.376C340.143 466.376 340.323 460.947 339.482 459.858L330.496 458.765V458.761Z" fill="#6C13B2"/>
<path d="M309.961 452.444C309.961 452.444 309.48 454.078 309.14 454.338C309.14 454.338 299.204 460.787 297.915 463.625C297.915 463.625 295.12 467.064 299.637 467.236C299.637 467.236 308.539 467.925 313.268 463.153C313.268 463.153 314.386 462.12 314.558 462.12C314.558 462.12 317.697 462.893 318.558 461.131C318.558 461.131 319.503 459.714 319.331 459.198C319.331 459.198 319.948 454.418 318.907 452.701L309.961 452.444Z" fill="#6C13B2"/>
<path d="M304.434 383.041C304.434 383.041 304.11 414.959 305.656 425.663C305.656 425.663 307.978 448.361 309.524 452.228C309.524 452.228 317.137 456.227 319.199 452.228C319.199 452.228 320.877 426.436 320.36 420.631C320.36 420.631 319.395 414.698 320.461 411.732C320.461 411.732 322.167 420.759 322.943 421.92C322.943 421.92 327.328 454.034 329.911 458.545C329.911 458.545 338.297 461.768 339.911 459.45C339.911 459.45 339.458 425.919 337.652 419.598C337.652 419.598 335.79 413.165 335.79 412.304C335.79 412.304 337.288 395.223 333.019 387.617L304.434 383.041Z" fill="#2B2666"/>
<path d="M331.369 391.156C331.369 391.156 333.844 407.853 332.995 412.072C332.995 412.072 336.014 419.646 335.842 421.668C335.842 421.668 336.799 458.453 337.824 460.287C337.824 460.287 339.923 460.567 339.907 459.454C339.907 459.454 339.618 425.751 337.988 421.196C337.988 421.196 336.475 414.086 335.786 412.312C335.786 412.312 336.743 399.29 335.518 396.488L331.369 391.164V391.156Z" fill="#24245B"/>
<path d="M310.129 323.438C310.129 323.438 304.11 323.866 301.443 328.338C301.443 328.338 295.424 338.742 292.413 346.392C292.413 346.392 277.448 336.504 275.898 337.105C275.898 337.105 273.92 341.232 274.004 344.414C274.004 344.414 289.225 359.202 295.16 355.763C295.16 355.763 302.985 350.691 303.589 347.597C303.589 347.597 303.934 360.835 304.362 363.674C304.362 363.674 303.417 379.494 303.762 382.333C303.762 382.333 318.038 398.67 334.036 390.071C334.036 390.071 335.069 372.705 334.637 369.522C334.637 369.522 334.036 362.213 334.292 358.862C334.292 358.862 340.311 337.281 339.883 334.446C339.883 334.446 338.849 327.825 327.324 325.075C327.324 325.075 323.712 322.365 321.99 322.409L310.121 323.442L310.129 323.438Z" fill="#3C3581"/>
<path d="M311.394 326.396C311.394 326.396 311.574 329.699 312.347 330.683C312.347 330.683 319.812 331.612 325.374 323.762C325.374 323.762 324.449 322.937 323.22 322.669L311.39 326.396H311.394Z" fill="#2A2A63"/>
<path d="M313.176 326.836C313.176 326.836 313.264 328.594 313.481 328.766C313.481 328.766 320.148 328.338 323.072 323.65C323.072 323.65 323.416 320.764 323.072 320.035L313.176 326.836Z" fill="#E0B382"/>
<path d="M306.308 306.232C306.308 306.232 304.667 320.599 309.652 325.111C309.652 325.111 314.782 331.716 323.704 319.166L326.323 313.894L327.813 307.589L322.995 303.346L310.497 304.034L306.308 306.232Z" fill="#F8CC95"/>
<path d="M323.344 305.984C323.344 305.984 310.902 310.055 304.078 304.951C304.078 304.951 302.188 303.574 302.356 301.396C302.356 301.396 301.955 300.535 304.763 299.391C304.763 299.391 310.898 291.596 317.433 291.136C317.433 291.136 325.919 289.074 330.103 297.041C330.103 297.041 333.716 307.873 326.547 316.184C326.547 316.184 325.458 318.878 324.313 319.166C324.313 319.166 321.618 319.511 321.846 316.872C321.846 316.872 322.507 315.139 322.891 315.051C322.891 315.051 324.181 315.095 324.481 313.806C324.481 313.806 325.943 309.723 323.836 309.29C323.836 309.29 322.963 307.913 323.336 305.98L323.344 305.984Z" fill="#211F51"/>
<path d="M333.94 383.041C333.94 383.041 332.518 385.627 332.518 386.056C332.518 386.056 329.479 388.894 329.423 390.811C329.423 390.811 328.85 393.934 331.429 395.455C331.429 395.455 336.274 398.293 338.653 394.594C338.653 394.594 340.888 391.816 340.403 387.801C340.403 387.801 340.88 385.779 340.728 385.227L333.944 383.037L333.94 383.041Z" fill="#FDD19C"/>
<path d="M335.366 354.931C335.366 354.931 336.487 361.308 336.231 362.213C336.231 362.213 333.207 374.939 333.207 377.861C333.207 377.861 332.626 381.532 333.495 382.789C333.495 382.789 339.63 386.4 341.525 384.911C341.525 384.911 346.943 367.373 346.17 361.824C346.17 361.824 347.087 337.857 337.812 330.647L335.37 354.931H335.366Z" fill="#3C3581"/>
<path d="M335.173 366.84C335.173 366.84 332.935 377.136 333.027 380.871C333.027 380.871 332.726 382.809 333.94 383.045C333.94 383.045 334.432 382.076 334.084 381.132C334.084 381.132 333.648 373.822 335.586 367.289C335.586 367.289 335.914 366.644 335.658 366.528C335.658 366.528 335.309 366.412 335.173 366.844V366.84Z" fill="#2A2A63"/>
<path d="M335.366 354.931C335.366 354.931 333.82 350.347 334.637 346.608C334.637 346.608 334.865 345.864 335.037 345.876C335.037 345.876 335.534 345.547 335.362 346.348C335.362 346.348 335.265 353.67 335.694 354.759C335.694 354.759 335.81 355.427 335.694 355.439C335.578 355.451 335.746 355.483 335.746 355.483C335.746 355.483 335.39 355.463 335.362 354.931H335.366Z" fill="#2A2A63"/>
<path d="M336.271 361.752C336.271 361.752 338.653 363.586 341.753 361.352C341.753 361.352 342.317 361.052 342.426 361.352C342.426 361.352 342.662 361.78 342.037 362.169C342.037 362.169 338.898 363.65 336.23 362.213L336.271 361.752Z" fill="#2A2A63"/>
<path d="M292.409 346.392C292.409 346.392 291.091 349.342 292.581 351.38C292.581 351.38 292.969 351.652 293.153 351.464C293.153 351.464 293.426 351.264 293.326 350.92C293.326 350.92 292.653 349.731 292.665 346.908C292.665 346.908 292.797 346.296 292.485 346.2L292.409 346.392Z" fill="#2A2A63"/>
<path d="M320.461 411.736C320.461 411.736 318.899 407.437 319.027 402.449C319.027 402.449 319.503 401.716 319.74 401.888C319.74 401.888 320.645 402.016 320.461 402.533C320.461 402.533 319.932 407.561 320.793 410.915C320.793 410.915 321.049 411.712 321.009 411.924C321.009 411.924 320.821 412.352 320.465 411.732L320.461 411.736Z" fill="#1E1D4C"/>
<path d="M118.747 156.965C118.747 156.965 124.385 152.449 126.924 152.233C126.924 152.233 128.086 152.017 128.43 152.706C128.43 152.706 128.903 153.438 127.958 153.995C127.958 153.995 130.108 155.628 136.299 150.084C136.299 150.084 137.416 149.567 137.588 150.084C137.588 150.084 138.622 151.188 137.16 153.41C137.16 153.41 133.42 161.176 122.239 161.865L120.393 162.726L118.751 156.969L118.747 156.965Z" fill="#FDD19C"/>
<path d="M63.8967 278.058C63.8967 278.058 64.4413 284.25 64.0969 285.495C64.0969 285.495 66.4195 290.74 66.5477 292.589C66.5477 292.589 67.0643 297.749 62.9796 297.749C62.9796 297.749 56.0117 297.661 54.9825 292.549C54.9825 292.549 53.8653 286.917 54.2497 285.672C54.2497 285.672 54.0695 280.243 54.9104 279.154L63.8967 278.062V278.058Z" fill="#6C13B2"/>
<path d="M84.432 271.737C84.432 271.737 84.9126 273.37 85.253 273.63C85.253 273.63 95.1883 280.079 96.4777 282.917C96.4777 282.917 99.2729 286.356 94.7598 286.528C94.7598 286.528 85.8576 287.217 81.1283 282.445C81.1283 282.445 80.011 281.412 79.8388 281.412C79.8388 281.412 76.6992 282.185 75.8383 280.423C75.8383 280.423 74.8932 279.006 75.0654 278.49C75.0654 278.49 74.4487 273.71 75.4898 271.993L84.436 271.737H84.432Z" fill="#6C13B2"/>
<path d="M89.9583 202.337C89.9583 202.337 90.2827 234.255 88.7369 244.959C88.7369 244.959 86.4143 267.657 84.8685 271.524C84.8685 271.524 77.2558 275.524 75.1935 271.524C75.1935 271.524 73.5156 245.732 74.0322 239.927C74.0322 239.927 74.9973 233.994 73.9321 231.028C73.9321 231.028 72.2261 240.055 71.4492 241.216C71.4492 241.216 67.0642 273.33 64.4813 277.841C64.4813 277.841 56.0958 281.064 54.4819 278.746C54.4819 278.746 54.9344 245.215 56.7405 238.894C56.7405 238.894 58.6026 232.461 58.6026 231.601C58.6026 231.601 57.1049 214.519 61.3738 206.913L89.9583 202.337Z" fill="#2B2666"/>
<path d="M63.0196 210.452C63.0196 210.452 60.5448 227.149 61.3938 231.368C61.3938 231.368 58.3743 238.942 58.5465 240.964C58.5465 240.964 57.5894 277.749 56.5643 279.583C56.5643 279.583 54.4659 279.863 54.4819 278.75C54.4819 278.75 54.7702 245.047 56.4001 240.492C56.4001 240.492 57.9138 233.382 58.6026 231.609C58.6026 231.609 57.6455 218.586 58.8709 215.784L63.0196 210.46V210.452Z" fill="#24245B"/>
<path d="M84.2638 142.73C84.2638 142.73 90.2827 143.158 92.9497 147.63C92.9497 147.63 98.9686 158.034 101.98 165.684C101.98 165.684 116.945 155.796 118.495 156.397C118.495 156.397 120.473 160.524 120.389 163.706C120.389 163.706 105.168 178.494 99.2329 175.055C99.2329 175.055 91.408 169.983 90.8033 166.889C90.8033 166.889 90.4589 180.128 90.0304 182.966C90.0304 182.966 90.9755 198.786 90.6311 201.625C90.6311 201.625 76.3548 217.962 60.3567 209.363C60.3567 209.363 59.3235 191.997 59.756 188.814C59.756 188.814 60.3567 181.505 60.1004 178.154C60.1004 178.154 54.0815 156.573 54.51 153.739C54.51 153.739 55.5432 147.117 67.0683 144.367C67.0683 144.367 70.6804 141.657 72.4024 141.701L84.2719 142.734L84.2638 142.73Z" fill="#3C3581"/>
<path d="M82.9983 145.692C82.9983 145.692 82.8181 148.995 82.0452 149.979C82.0452 149.979 74.5808 150.908 69.0184 143.058C69.0184 143.058 69.9435 142.233 71.1729 141.965L83.0023 145.692H82.9983Z" fill="#2A2A63"/>
<path d="M81.2163 146.132C81.2163 146.132 81.1282 147.89 80.9119 148.062C80.9119 148.062 74.2444 147.634 71.321 142.946C71.321 142.946 70.9766 140.06 71.321 139.331L81.2163 146.132Z" fill="#E0B382"/>
<path d="M88.0842 125.528C88.0842 125.528 89.726 139.895 84.7404 144.407C84.7404 144.407 79.6105 151.012 70.6884 138.462L68.0694 133.19L66.5797 126.885L71.3972 122.642L83.8954 123.33L88.0842 125.528Z" fill="#F8CC95"/>
<path d="M71.0488 125.276C71.0488 125.276 83.4909 129.347 90.3147 124.243C90.3147 124.243 92.2049 122.866 92.0367 120.688C92.0367 120.688 92.4371 119.827 89.6299 118.683C89.6299 118.683 83.4949 110.888 76.9595 110.428C76.9595 110.428 68.4739 108.366 64.2891 116.333C64.2891 116.333 60.677 127.165 67.8452 135.476C67.8452 135.476 68.9344 138.17 70.0797 138.458C70.0797 138.458 72.7748 138.803 72.5465 136.164C72.5465 136.164 71.8857 134.431 71.5013 134.343C71.5013 134.343 70.2118 134.387 69.9115 133.098C69.9115 133.098 68.4498 129.015 70.5562 128.582C70.5562 128.582 71.4292 127.205 71.0568 125.272L71.0488 125.276Z" fill="#211F51"/>
<path d="M60.4527 202.337C60.4527 202.337 61.8743 204.923 61.8743 205.352C61.8743 205.352 64.9138 208.19 64.9699 210.107C64.9699 210.107 65.5425 213.23 62.9636 214.751C62.9636 214.751 58.1181 217.589 55.7394 213.89C55.7394 213.89 53.5048 211.112 53.9894 207.097C53.9894 207.097 53.5128 205.075 53.665 204.523L60.4487 202.333L60.4527 202.337Z" fill="#FDD19C"/>
<path d="M59.0271 174.227C59.0271 174.227 57.9058 180.604 58.1621 181.509C58.1621 181.509 61.1856 194.235 61.1856 197.157C61.1856 197.157 61.7662 200.828 60.8972 202.085C60.8972 202.085 54.7622 205.696 52.8681 204.207C52.8681 204.207 47.4499 186.669 48.2228 181.12C48.2228 181.12 47.3058 157.153 56.5803 149.943L59.0231 174.227H59.0271Z" fill="#3C3581"/>
<path d="M59.2193 186.136C59.2193 186.136 61.4579 196.432 61.3658 200.167C61.3658 200.167 61.6661 202.105 60.4527 202.341C60.4527 202.341 59.9602 201.372 60.3086 200.428C60.3086 200.428 60.7451 193.118 58.8069 186.585C58.8069 186.585 58.4785 185.94 58.7348 185.824C58.7348 185.824 59.0832 185.708 59.2193 186.14V186.136Z" fill="#2A2A63"/>
<path d="M59.027 174.227C59.027 174.227 60.5728 169.643 59.7559 165.904C59.7559 165.904 59.5276 165.16 59.3554 165.172C59.3554 165.172 58.8589 164.843 59.031 165.644C59.031 165.644 59.1272 172.966 58.6987 174.055C58.6987 174.055 58.5825 174.723 58.6987 174.735C58.8148 174.747 58.6466 174.779 58.6466 174.779C58.6466 174.779 59.003 174.759 59.031 174.227H59.027Z" fill="#2A2A63"/>
<path d="M58.122 181.048C58.122 181.048 55.7393 182.882 52.6398 180.648C52.6398 180.648 52.0752 180.348 51.967 180.648C51.967 180.648 51.7308 181.076 52.3555 181.465C52.3555 181.465 55.4951 182.946 58.1621 181.509L58.122 181.048Z" fill="#2A2A63"/>
<path d="M101.984 165.688C101.984 165.688 103.301 168.638 101.812 170.676C101.812 170.676 101.423 170.948 101.239 170.76C101.239 170.76 100.967 170.56 101.067 170.216C101.067 170.216 101.74 169.027 101.728 166.204C101.728 166.204 101.596 165.592 101.908 165.496L101.984 165.688Z" fill="#2A2A63"/>
<path d="M73.932 231.028C73.932 231.028 75.4938 226.729 75.3616 221.741C75.3616 221.741 74.8851 221.008 74.6488 221.18C74.6488 221.18 73.7438 221.308 73.928 221.825C73.928 221.825 74.4566 226.853 73.5956 230.207C73.5956 230.207 73.3393 231.004 73.3794 231.216C73.3794 231.216 73.5676 231.645 73.924 231.024L73.932 231.028Z" fill="#1E1D4C"/>
<path d="M181.21 372.349C184.394 374.186 184.394 377.197 181.21 379.034L129.135 409.102C125.951 410.939 120.741 410.939 117.558 409.102L19.6063 352.605C16.4227 350.767 16.4267 347.773 19.6183 345.948L72.0499 315.98C75.2416 314.154 80.4555 314.166 83.6391 316.004L181.206 372.341L181.21 372.349Z" fill="#A0BEEA"/>
<path d="M17.2275 344.899C17.2275 344.847 17.2275 344.795 17.2275 344.743V340.207L19.5101 341.564C19.5462 341.54 19.5822 341.52 19.6223 341.496L72.0539 311.528C75.2455 309.703 80.4595 309.715 83.6431 311.552L181.21 367.889C181.59 368.109 181.927 368.345 182.215 368.598L183.597 366.676V371.232C183.597 372.445 182.8 373.654 181.21 374.574L129.135 404.642C125.951 406.48 120.741 406.48 117.558 404.642L19.6062 348.145C18.0885 347.269 17.2996 346.132 17.2275 344.983V344.895V344.899Z" fill="#3EA2CE"/>
<path d="M181.21 363.181C184.394 365.019 184.394 368.029 181.21 369.867L129.135 399.935C125.951 401.772 120.741 401.772 117.558 399.935L19.6063 343.438C16.4227 341.6 16.4267 338.606 19.6183 336.78L72.0499 306.812C75.2416 304.987 80.4555 304.999 83.6391 306.836L181.206 363.173L181.21 363.181Z" fill="#51BAF4"/>
<path d="M170.998 365.007L165.933 367.941L129.78 347.085L134.641 344.05L170.998 365.007Z" fill="#E5E5E5"/>
<path d="M162.389 369.867L157.327 372.801L121.17 351.944L126.031 348.91L162.389 369.867Z" fill="#E5E5E5"/>
<path d="M128.438 382.941L127.024 383.762L116.949 377.949L118.307 377.1L128.438 382.941Z" fill="#E5E5E5"/>
<path d="M126.039 384.294L124.626 385.115L114.55 379.302L115.908 378.458L126.039 384.294Z" fill="#E5E5E5"/>
<path d="M123.601 385.671L122.191 386.488L112.115 380.675L113.469 379.831L123.601 385.671Z" fill="#E5E5E5"/>
<path d="M121.202 387.024L119.792 387.841L109.717 382.028L111.07 381.184L121.202 387.024Z" fill="#E5E5E5"/>
<path d="M79.9509 353.646L76.0945 355.88L48.5552 339.995L52.2594 337.681L79.9509 353.646Z" fill="#E5E5E5"/>
<path d="M73.1672 357.997L69.3108 360.235L41.7715 344.35L45.4717 342.036L73.1672 357.997Z" fill="#E5E5E5"/>
<path d="M146.795 379.174L144.861 380.291L131.061 372.333L132.915 371.172L146.795 379.174Z" fill="#E5E5E5"/>
<path d="M131.253 370.263L129.319 371.384L115.519 363.426L117.378 362.265L131.253 370.263Z" fill="#E5E5E5"/>
<path d="M115.844 361.432L113.909 362.553L100.11 354.591L101.964 353.434L115.844 361.432Z" fill="#E5E5E5"/>
<path d="M100.302 352.525L98.3718 353.646L84.5681 345.683L86.4262 344.526L100.302 352.525Z" fill="#E5E5E5"/>
<path d="M84.5681 343.51L82.638 344.631L68.8383 336.672L70.6924 335.511L84.5681 343.51Z" fill="#E5E5E5"/>
<path d="M69.0305 334.603L67.0963 335.723L53.2966 327.765L55.1547 326.604L69.0305 334.603Z" fill="#E5E5E5"/>
<path d="M96.9663 322.497L90.0664 326.604L83.0544 322.497L90.0104 318.586L96.9663 322.497Z" fill="#E5E5E5"/>
<path d="M88.5607 317.589L81.6609 321.696L74.6489 317.589L81.6048 313.678L88.5607 317.589Z" fill="#E5E5E5"/>
<path d="M88.6088 327.409L81.7129 331.516L74.7009 327.409L81.6528 323.498L88.6088 327.409Z" fill="#E5E5E5"/>
<path d="M80.2032 322.497L73.3074 326.604L66.2914 322.497L73.2473 318.586L80.2032 322.497Z" fill="#E5E5E5"/>
<path d="M183.585 440.075C183.585 440.075 182.536 447.304 184.53 449.014C184.53 449.014 198.402 451.908 210.471 440.631C210.471 440.631 212.846 438.565 212.085 435.999C212.085 435.999 209.33 432.389 204.485 433.91L192.511 436.095L183.581 440.075H183.585Z" fill="#5673BE"/>
<path d="M151.753 437.128C151.753 437.128 150.703 444.358 152.698 446.067C152.698 446.067 166.569 448.962 178.639 437.685C178.639 437.685 181.014 435.619 180.253 433.053C180.253 433.053 177.498 429.442 172.652 430.963L160.679 433.149L151.749 437.128H151.753Z" fill="#5673BE"/>
<path d="M188.138 351.66C188.138 351.66 194.798 392.445 195.082 401.852C195.082 401.852 198.882 433.914 197.553 438.613C197.553 438.613 185.96 442.745 182.111 439.182C182.111 439.182 180.257 374.49 172.989 364.374C172.989 364.374 171.563 363.377 171.419 365.371C171.419 365.371 170.138 429.778 166.714 437.044C166.714 437.044 154.74 440.747 151.036 436.9C151.036 436.9 155.313 399.142 155.097 382.257C155.097 382.257 153.423 353.55 153.831 351.66H188.134H188.138Z" fill="#455181"/>
<path d="M175.456 288.918C175.456 288.918 185.391 288.758 188.907 292.653C188.907 292.653 196.984 300.916 197.553 302.721C197.553 302.721 196.508 313.55 192.611 314.787C192.611 314.787 188.43 312.697 187.954 310.608C187.954 310.608 190.945 343.854 189.808 350.98C189.808 350.98 167.715 360.956 152.75 350.98C152.75 350.98 150.183 320.772 152.75 314.218C152.75 314.218 144.34 319.346 139.635 312.081C139.635 312.081 141.561 298.686 152.249 290.423C152.249 290.423 157.776 288.486 164.383 288.918H175.456Z" fill="#E6635E"/>
<path d="M176.465 289.495C176.465 289.495 177.558 291.1 176.465 292.133C176.465 292.133 171.107 296.124 163.886 290.423C163.886 290.423 162.901 289.643 162.689 288.858L164.383 288.922L176.469 289.499L176.465 289.495Z" fill="#C94F4F"/>
<path d="M184.346 273.222C184.346 273.222 187.313 281.66 182.183 286.933C182.183 286.933 181.615 288.43 178.191 289.07C178.191 289.07 176.265 288.714 175.624 290.78C175.624 290.78 169.993 293.346 164.363 289.282C164.363 289.282 163.294 285.864 164.363 284.723L169.136 275.319L176.477 272.897L184.342 273.222H184.346Z" fill="#F8CC95"/>
<path d="M192.811 276.228L191.338 273.218L176.517 277.385L178.083 283.618L192.811 279.735V276.228Z" fill="#525478"/>
<path d="M178.831 260.928C178.831 260.928 185.387 266.769 185.675 269.903C185.675 269.903 186.957 273.322 182.255 273.75C182.255 273.75 176.697 275.031 176.413 276.032C176.413 276.032 172.993 275.888 173.561 279.311C173.561 279.311 173.561 282.729 176.128 284.154C176.128 284.154 178.695 285.295 176.697 287.433C176.697 287.433 172.28 290.139 163.87 285.58C163.87 285.58 153.891 277.457 161.732 264.347C161.732 264.347 168.035 253.73 178.835 260.928H178.831Z" fill="#1D2942"/>
<path d="M197.553 303.746C197.553 303.746 201.926 302.821 200.997 299.543C200.997 299.543 190.164 287.429 190.164 286.364C190.164 286.364 186.476 284.807 185.835 281.985C185.835 281.985 185.319 279.094 186.672 277.601C186.672 277.601 189.88 274.823 194.157 276.676C194.157 276.676 196.011 278.67 196.508 283.017C196.508 283.017 205.274 292.281 206.911 296.412C206.911 296.412 211.116 304.963 206.343 310.091C206.343 310.091 200.829 316.196 193.748 314.106L197.553 303.75V303.746Z" fill="#F8CC95"/>
<path d="M149.514 315.551C149.514 315.551 148.797 324.723 151.609 327.505L151.989 339.583C151.989 339.583 142.286 334.599 141.445 314.174L149.514 315.551Z" fill="#F8CC95"/>
<path d="M35.1921 167.233C35.1921 156.769 27.8757 144.031 18.9296 138.927C15.9221 137.209 13.1029 136.557 10.6802 136.837H10.6762C9.41073 136.985 8.25342 137.385 7.23626 138.026L4.93364 139.391L5.41018 139.607C3.68823 141.605 2.67908 144.603 2.67908 148.438C2.67908 158.774 9.9954 171.513 18.9416 176.745C22.3254 178.726 25.477 179.343 28.084 178.778L28.2762 179.127L30.0422 178.086C30.3145 177.946 30.5828 177.79 30.8391 177.618L30.8631 177.606C33.5502 175.78 35.2001 172.205 35.2001 167.237L35.1921 167.233Z" fill="#CE8B14"/>
<path d="M32.521 168.818C32.521 158.354 25.2046 145.616 16.2585 140.512C7.3163 135.408 -0.00402832 139.687 -0.00402832 150.024C-0.00402832 160.36 7.31229 173.098 16.2585 178.33C25.2006 183.562 32.521 179.283 32.521 168.818Z" fill="#F3B014"/>
<path d="M16.3426 173.43V170.732C15.6218 170.564 15.0331 170.26 14.5806 169.823C14.1281 169.387 13.7356 168.686 13.4072 167.718C13.0789 166.749 12.8867 165.564 12.8346 164.167L14.2882 163.658C14.4004 165.108 14.5966 166.172 14.8809 166.853C15.2894 167.814 15.7739 168.346 16.3426 168.458V159.871C15.7499 159.663 15.1412 159.231 14.5205 158.582C14.06 158.102 13.7076 157.437 13.4553 156.589C13.207 155.74 13.0829 154.775 13.0829 153.694C13.0829 151.777 13.4473 150.224 14.1761 149.035C14.6647 148.234 15.3855 147.746 16.3426 147.566V146.277H17.1956V147.566C18.0365 147.714 18.7013 148.174 19.1938 148.943C19.8265 149.923 20.207 151.265 20.3351 152.974L18.8414 153.394C18.7573 152.333 18.5771 151.525 18.3088 150.96C18.0365 150.396 17.6681 150.024 17.1956 149.843V157.622C17.9244 157.962 18.4049 158.226 18.6412 158.414C19.0897 158.783 19.4581 159.235 19.7425 159.763C20.0268 160.292 20.243 160.924 20.3952 161.653C20.5474 162.381 20.6235 163.174 20.6235 164.023C20.6235 165.892 20.3031 167.449 19.6664 168.698C19.0296 169.947 18.2047 170.616 17.1916 170.708V173.434H16.3386L16.3426 173.43ZM16.3426 149.807C15.7819 149.967 15.3374 150.388 15.0131 151.068C14.6887 151.749 14.5285 152.554 14.5285 153.482C14.5285 154.411 14.6647 155.172 14.941 155.792C15.2173 156.413 15.6818 156.905 16.3426 157.277V149.811V149.807ZM17.1916 168.454C17.7522 168.326 18.2167 167.87 18.5851 167.089C18.9536 166.309 19.1338 165.344 19.1338 164.195C19.1338 163.214 19.0056 162.429 18.7453 161.833C18.485 161.24 17.9684 160.708 17.1916 160.236V168.45V168.454Z" fill="#FFD98D"/>
<path d="M46.5571 242.041C46.5571 231.576 39.2407 218.838 30.2946 213.734C27.2871 212.017 24.4679 211.364 22.0452 211.645H22.0412C20.7757 211.793 19.6184 212.193 18.6013 212.834L16.2986 214.199L16.7752 214.415C15.0532 216.412 14.0441 219.411 14.0441 223.246C14.0441 233.582 21.3604 246.32 30.3066 251.552C33.6904 253.534 36.842 254.15 39.449 253.586L39.6412 253.934L41.4072 252.893C41.6795 252.753 41.9478 252.597 42.2041 252.425L42.2281 252.413C44.9152 250.588 46.5651 247.013 46.5651 242.045L46.5571 242.041Z" fill="#CE8B14"/>
<path d="M43.886 243.622C43.886 233.158 36.5696 220.42 27.6235 215.316C18.6813 210.211 11.361 214.491 11.361 224.827C11.361 235.163 18.6773 247.902 27.6235 253.134C36.5656 258.366 43.886 254.086 43.886 243.622Z" fill="#F3B014"/>
<path d="M27.7076 248.234V245.536C26.9868 245.367 26.3981 245.063 25.9456 244.627C25.4931 244.191 25.1006 243.49 24.7722 242.521C24.4439 241.552 24.2516 240.368 24.1996 238.97L25.6532 238.462C25.7654 239.911 25.9616 240.976 26.2459 241.657C26.6544 242.617 27.1389 243.15 27.7076 243.262V234.675C27.1149 234.467 26.5062 234.034 25.8855 233.386C25.425 232.906 25.0726 232.241 24.8203 231.392C24.572 230.544 24.4479 229.579 24.4479 228.498C24.4479 226.581 24.8123 225.027 25.5411 223.838C26.0297 223.038 26.7505 222.549 27.7076 222.369V221.08H28.5605V222.369C29.4015 222.517 30.0663 222.978 30.5588 223.746C31.1915 224.727 31.572 226.068 31.7001 227.777L30.2064 228.198C30.1223 227.137 29.9421 226.328 29.6738 225.764C29.4015 225.199 29.0331 224.827 28.5605 224.647V232.425C29.2894 232.765 29.7699 233.03 30.0062 233.218C30.4547 233.586 30.8231 234.038 31.1074 234.567C31.3918 235.095 31.608 235.728 31.7602 236.456C31.9124 237.185 31.9884 237.974 31.9884 238.826C31.9884 240.696 31.6681 242.253 31.0314 243.502C30.3946 244.751 29.5697 245.42 28.5565 245.512V248.238H27.7036L27.7076 248.234ZM27.7076 224.611C27.1469 224.771 26.7024 225.191 26.3781 225.872C26.0537 226.552 25.8935 227.357 25.8935 228.286C25.8935 229.215 26.0297 229.975 26.306 230.596C26.5823 231.216 27.0468 231.709 27.7076 232.081V224.615V224.611ZM28.5605 243.258C29.1212 243.13 29.5857 242.673 29.9541 241.893C30.3226 241.112 30.5028 240.147 30.5028 238.998C30.5028 238.018 30.3746 237.233 30.1143 236.637C29.854 236.044 29.3374 235.512 28.5605 235.039V243.254V243.258Z" fill="#FFD98D"/>
<path d="M140.288 242.041C140.288 231.576 132.971 218.838 124.025 213.734C121.018 212.017 118.199 211.364 115.776 211.645H115.772C114.506 211.793 113.349 212.193 112.332 212.834L110.029 214.199L110.506 214.415C108.784 216.412 107.775 219.411 107.775 223.246C107.775 233.582 115.091 246.32 124.037 251.552C127.421 253.534 130.573 254.15 133.18 253.586L133.372 253.934L135.138 252.893C135.41 252.753 135.678 252.597 135.935 252.425L135.959 252.413C138.646 250.588 140.296 247.013 140.296 242.045L140.288 242.041Z" fill="#CE8B14"/>
<path d="M137.621 243.622C137.621 233.158 130.304 220.42 121.358 215.316C112.416 210.211 105.096 214.491 105.096 224.827C105.096 235.163 112.412 247.902 121.358 253.134C130.3 258.366 137.621 254.086 137.621 243.622Z" fill="#F3B014"/>
<path d="M121.438 248.234V245.536C120.717 245.367 120.129 245.063 119.676 244.627C119.224 244.191 118.831 243.49 118.503 242.521C118.174 241.552 117.982 240.368 117.93 238.97L119.384 238.462C119.496 239.911 119.692 240.976 119.977 241.657C120.385 242.617 120.87 243.15 121.438 243.262V234.675C120.845 234.467 120.237 234.034 119.616 233.386C119.156 232.906 118.803 232.241 118.551 231.392C118.303 230.544 118.178 229.579 118.178 228.498C118.178 226.581 118.543 225.027 119.272 223.838C119.76 223.038 120.481 222.549 121.438 222.369V221.08H122.291V222.369C123.132 222.517 123.797 222.978 124.289 223.746C124.922 224.727 125.303 226.068 125.431 227.777L123.937 228.198C123.853 227.137 123.673 226.328 123.404 225.764C123.132 225.199 122.764 224.827 122.291 224.647V232.425C123.02 232.765 123.501 233.03 123.737 233.218C124.185 233.586 124.554 234.038 124.838 234.567C125.122 235.095 125.339 235.728 125.491 236.456C125.643 237.185 125.719 237.974 125.719 238.826C125.719 240.696 125.399 242.253 124.762 243.502C124.125 244.751 123.3 245.42 122.287 245.512V248.238H121.434L121.438 248.234ZM121.438 224.611C120.878 224.771 120.433 225.191 120.109 225.872C119.784 226.552 119.624 227.357 119.624 228.286C119.624 229.215 119.76 229.975 120.037 230.596C120.313 231.216 120.777 231.709 121.438 232.081V224.615V224.611ZM122.291 243.258C122.852 243.13 123.316 242.673 123.685 241.893C124.053 241.112 124.233 240.147 124.233 238.998C124.233 238.018 124.105 237.233 123.845 236.637C123.585 236.044 123.068 235.512 122.291 235.039V243.254V243.258Z" fill="#FFD98D"/>
</g>
<defs>
<clipPath id="clip0_39_3981">
<rect width="640" height="492" fill="white"/>
</clipPath>
</defs>
</svg>
