<svg width="32" height="32" viewBox="0 0 32 32" fill="none" xmlns="http://www.w3.org/2000/svg">
<path d="M0 16C0 7.16344 7.16344 0 16 0C24.8366 0 32 7.16344 32 16C32 24.8366 24.8366 32 16 32C7.16344 32 0 24.8366 0 16Z" fill="#7F56D9"/>
<path fill-rule="evenodd" clip-rule="evenodd" d="M22.7953 9.85337L13.2487 19.0667L10.7153 16.36C10.2487 15.92 9.51534 15.8934 8.982 16.2667C8.462 16.6534 8.31534 17.3334 8.63534 17.88L11.6353 22.76C11.9287 23.2134 12.4353 23.4934 13.0087 23.4934C13.5553 23.4934 14.0753 23.2134 14.3687 22.76C14.8487 22.1334 24.0087 11.2134 24.0087 11.2134C25.2087 9.98671 23.7553 8.90671 22.7953 9.84004V9.85337Z" fill="white"/>
</svg>
