<svg width="10" height="7" viewBox="0 0 10 7" fill="none" xmlns="http://www.w3.org/2000/svg">
<path d="M5.23342 6.01525C5.18658 6.06633 5.12963 6.10711 5.0662 6.135C5.00276 6.1629 4.93422 6.17731 4.86492 6.17731C4.79562 6.17731 4.72707 6.1629 4.66364 6.135C4.6002 6.10711 4.54326 6.06633 4.49642 6.01525L0.133416 1.25525C0.0671787 1.18383 0.0232449 1.09462 0.00701237 0.998576C-0.00922012 0.90253 0.00295448 0.803834 0.0420418 0.714613C0.0811291 0.625392 0.145426 0.549531 0.227035 0.49635C0.308643 0.443168 0.404009 0.414982 0.501416 0.415254L9.22742 0.415254C9.32452 0.415147 9.41955 0.443317 9.50091 0.496326C9.58227 0.549335 9.64643 0.624887 9.68557 0.713756C9.7247 0.802626 9.73711 0.900967 9.72128 0.996771C9.70544 1.09258 9.66206 1.1817 9.59642 1.25325L5.23342 6.01525Z" fill="#333333"/>
</svg>
