<svg width="11" height="7" viewBox="0 0 11 7" fill="none" xmlns="http://www.w3.org/2000/svg">
<path d="M6.32475 6.11822C6.27602 6.1693 6.21679 6.21007 6.1508 6.23797C6.08481 6.26587 6.01351 6.28027 5.94142 6.28027C5.86934 6.28027 5.79803 6.26587 5.73205 6.23797C5.66606 6.21007 5.60682 6.1693 5.5581 6.11822L1.01957 1.35833C0.950664 1.28692 0.904963 1.19771 0.888077 1.10166C0.871191 1.00562 0.883855 0.906926 0.924515 0.817707C0.965175 0.728487 1.03206 0.652628 1.11695 0.599448C1.20184 0.546268 1.30105 0.518082 1.40237 0.518354L10.4794 0.518354C10.5804 0.518247 10.6793 0.546417 10.7639 0.599424C10.8486 0.652431 10.9153 0.727982 10.956 0.816849C10.9967 0.905717 11.0096 1.00406 10.9932 1.09986C10.9767 1.19566 10.9316 1.28478 10.8633 1.35633L6.32475 6.11822Z" fill="#7F56D9"/>
</svg>
