<svg width="11" height="7" viewBox="0 0 11 7" fill="none" xmlns="http://www.w3.org/2000/svg">
<path d="M5.52198 6.82905C5.4726 6.88289 5.41257 6.92587 5.3457 6.95528C5.27883 6.98469 5.20657 6.99988 5.13352 6.99988C5.06046 6.99988 4.9882 6.98469 4.92133 6.95528C4.85446 6.92587 4.79443 6.88289 4.74505 6.82905L0.145697 1.81118C0.0758705 1.73589 0.0295572 1.64185 0.0124454 1.5406C-0.00466728 1.43935 0.00816727 1.33531 0.0493717 1.24126C0.0905771 1.1472 0.158357 1.06723 0.244387 1.01117C0.330416 0.955105 0.430948 0.925392 0.533632 0.925678L9.73234 0.925678C9.83471 0.925566 9.93489 0.955262 10.0207 1.01114C10.1064 1.06702 10.1741 1.14667 10.2153 1.24035C10.2566 1.33404 10.2696 1.4377 10.253 1.5387C10.2363 1.63969 10.1905 1.73364 10.1213 1.80907L5.52198 6.82905Z" fill="#7F56D9"/>
</svg>
