<svg width="13" height="14" viewBox="0 0 13 14" fill="none" xmlns="http://www.w3.org/2000/svg">
<path d="M1.68234 12.9013L1.85911 13.0781L2.03589 12.9013L6.58424 8.35296L11.1326 12.9013L11.3094 13.0781L11.4861 12.9013L12.3452 12.0422L12.522 11.8654L12.3452 11.6886L7.7969 7.14029L12.3452 2.59194L12.522 2.41517L12.3452 2.23839L11.4861 1.37928L11.3094 1.2025L11.1326 1.37928L6.58424 5.92762L2.03589 1.37928L1.85911 1.2025L1.68234 1.37928L0.823223 2.23839L0.646447 2.41517L0.823223 2.59194L5.37157 7.14029L0.823223 11.6886L0.646446 11.8654L0.823224 12.0422L1.68234 12.9013Z" fill="white" stroke="white" stroke-width="0.5"/>
</svg>
