<svg width="20" height="20" viewBox="0 0 20 20" fill="none" xmlns="http://www.w3.org/2000/svg">
<path d="M10.0002 20.0002C8.66575 20.0079 7.34409 19.7396 6.11823 19.2122C4.93021 18.7057 3.84986 17.977 2.93523 17.0652C2.02345 16.1506 1.29474 15.0703 0.788237 13.8823C0.260816 12.6564 -0.00746795 11.3347 0.000235223 10.0002C-0.00909497 8.66301 0.259233 7.33839 0.788237 6.11022C1.29614 4.92534 2.02475 3.84787 2.93523 2.93523C3.84987 2.02345 4.93022 1.29476 6.11823 0.788257C7.3441 0.260863 8.66576 -0.00744201 10.0002 0.000232334C11.3375 -0.00903975 12.662 0.259309 13.8902 0.788257C15.0751 1.2962 16.1526 2.02478 17.0652 2.93523C17.9757 3.84787 18.7043 4.92534 19.2122 6.11022C19.7412 7.33839 20.0096 8.66301 20.0002 10.0002C20.0079 11.3347 19.7397 12.6564 19.2122 13.8823C18.7057 15.0703 17.977 16.1506 17.0652 17.0652C16.1526 17.9757 15.0751 18.7043 13.8902 19.2122C12.6621 19.7412 11.3375 20.0095 10.0002 20.0002ZM10.0002 18.4003C10.515 17.7231 10.9688 17.0016 11.3562 16.2443C11.7375 15.4851 12.0391 14.6885 12.2562 13.8672H7.75024C7.97428 14.7002 8.27802 15.5095 8.65723 16.2842C9.03198 17.0333 9.48196 17.7423 10.0002 18.4003ZM7.96223 18.1113C7.53564 17.4904 7.17153 16.8288 6.87524 16.1362C6.5561 15.405 6.30536 14.6457 6.12623 13.8682H2.55524C3.09227 14.9379 3.85559 15.878 4.79223 16.6232C5.71735 17.3617 6.80386 17.8712 7.96323 18.1102L7.96223 18.1113ZM12.0392 18.1113C13.1983 17.8718 14.2845 17.362 15.2092 16.6232C16.1459 15.878 16.9092 14.9379 17.4462 13.8682H13.8752C13.6644 14.646 13.397 15.4074 13.0752 16.1462C12.7836 16.8279 12.4372 17.4847 12.0392 18.1102V18.1113ZM1.89323 12.2892H5.80623C5.73957 11.8979 5.69157 11.5142 5.66224 11.1382C5.6329 10.7622 5.61823 10.3829 5.61823 10.0002C5.61823 9.61823 5.63324 9.23921 5.66324 8.86321C5.69324 8.48721 5.74123 8.10354 5.80723 7.71221H1.89423C1.79121 8.07812 1.71336 8.45071 1.66124 8.82726C1.60704 9.2159 1.57997 9.60783 1.58024 10.0002C1.58001 10.3923 1.60708 10.7839 1.66124 11.1722C1.71336 11.5488 1.7912 11.9213 1.89423 12.2872L1.89323 12.2892ZM7.38524 12.2892H12.6162C12.6829 11.8979 12.7309 11.5176 12.7602 11.1482C12.7896 10.7789 12.8029 10.3962 12.8002 10.0002C12.8002 9.6049 12.7852 9.22259 12.7552 8.85326C12.7252 8.48393 12.6772 8.10354 12.6112 7.71221H7.38023C7.31357 8.10354 7.26557 8.48393 7.23624 8.85326C7.2069 9.22259 7.1949 9.6049 7.20023 10.0002C7.20023 10.3956 7.21524 10.7779 7.24524 11.1472C7.27524 11.5165 7.32224 11.8969 7.38624 12.2883L7.38524 12.2892ZM14.1952 12.2892H18.1082C18.2113 11.9233 18.2891 11.5508 18.3412 11.1742C18.3954 10.7859 18.4224 10.3943 18.4222 10.0022C18.4224 9.61017 18.3954 9.21856 18.3412 8.83025C18.2891 8.4537 18.2113 8.08117 18.1082 7.71526H14.2002C14.2669 8.10659 14.3149 8.49026 14.3442 8.86626C14.3736 9.24226 14.3886 9.62122 14.3892 10.0032C14.3892 10.3852 14.3742 10.7642 14.3442 11.1402C14.3142 11.5162 14.2662 11.8999 14.2002 12.2912L14.1952 12.2892ZM13.8752 6.13524H17.4462C16.9141 5.06663 16.1559 4.12655 15.2242 3.38024C14.2917 2.64256 13.2019 2.12932 12.0392 1.88024C12.4561 2.51761 12.8164 3.19018 13.1162 3.89025C13.4302 4.61658 13.684 5.36742 13.8752 6.13524ZM7.74724 6.13524H12.2532C12.0247 5.29684 11.716 4.4824 11.3312 3.70324C10.9599 2.95899 10.5139 2.25435 10.0002 1.60021C9.4867 2.2534 9.04075 2.95704 8.66923 3.70024C8.28464 4.48041 7.97522 5.29585 7.74724 6.13524ZM2.55524 6.13524H6.12623C6.31757 5.36811 6.57142 4.61795 6.88524 3.89226C7.18505 3.19219 7.54542 2.51963 7.96223 1.88225C6.79697 2.12812 5.70487 2.64165 4.77224 3.38225C3.84543 4.13112 3.08881 5.06984 2.55524 6.13524Z" fill="#6006A8"/>
</svg>
