<svg width="21" height="20" viewBox="0 0 21 20" fill="none" xmlns="http://www.w3.org/2000/svg">
<path d="M10.4026 19.9998C9.01439 20.0075 7.63955 19.7392 6.36438 19.2118C5.12856 18.7053 4.00474 17.9766 3.05332 17.0648C2.10486 16.1502 1.34683 15.0699 0.819949 13.8819C0.271309 12.6561 -0.0077684 11.3344 0.000244687 10C-0.00946087 8.66281 0.269662 7.33822 0.819949 6.11008C1.34829 4.92522 2.10621 3.84779 3.05332 2.93516C4.00476 2.0234 5.12857 1.29473 6.36438 0.788239C7.63956 0.260857 9.0144 -0.00744184 10.4026 0.000232328C11.7936 -0.00903954 13.1715 0.259303 14.4491 0.788239C15.6816 1.29617 16.8024 2.02474 17.7518 2.93516C18.6989 3.84779 19.4568 4.92522 19.9852 6.11008C20.5355 7.33822 20.8146 8.66281 20.8049 10C20.8129 11.3344 20.5338 12.6561 19.9852 13.8819C19.4583 15.0699 18.7003 16.1502 17.7518 17.0648C16.8024 17.9753 15.6816 18.7038 14.4491 19.2118C13.1715 19.7407 11.7936 20.0091 10.4026 19.9998ZM10.4026 18.3998C10.9381 17.7226 11.4101 17.0012 11.8131 16.2439C12.2097 15.4847 12.5234 14.6882 12.7493 13.8669H8.06204C8.2951 14.6998 8.61106 15.5092 9.00553 16.2839C9.39535 17.0329 9.86344 17.7419 10.4026 18.3998ZM8.28257 18.1108C7.83881 17.49 7.46006 16.8284 7.15184 16.1358C6.81987 15.4046 6.55904 14.6454 6.3727 13.8679H2.65804C3.21668 14.9376 4.01071 15.8776 4.98504 16.6228C5.94737 17.3613 7.07759 17.8708 8.28361 18.1098L8.28257 18.1108ZM12.5236 18.1108C13.7293 17.8714 14.8592 17.3616 15.8211 16.6228C16.7955 15.8776 17.5895 14.9376 18.1481 13.8679H14.4335C14.2142 14.6457 13.936 15.407 13.6013 16.1459C13.298 16.8275 12.9376 17.4843 12.5236 18.1098V18.1108ZM1.9694 12.2889H6.03983C5.97048 11.8976 5.92055 11.514 5.89004 11.138C5.85953 10.762 5.84426 10.3827 5.84426 10C5.84426 9.61801 5.85987 9.23899 5.89108 8.863C5.92229 8.48701 5.97221 8.10335 6.04087 7.71203H1.97044C1.86327 8.07793 1.78229 8.45051 1.72807 8.82705C1.67169 9.21569 1.64354 9.6076 1.64381 10C1.64358 10.3921 1.67174 10.7837 1.72807 11.172C1.78229 11.5485 1.86326 11.921 1.97044 12.2869L1.9694 12.2889ZM7.68236 12.2889H13.1238C13.1932 11.8976 13.2431 11.5173 13.2736 11.148C13.3041 10.7787 13.318 10.396 13.3152 10C13.3152 9.60468 13.2996 9.22238 13.2684 8.85305C13.2372 8.48373 13.1873 8.10335 13.1186 7.71203H7.67715C7.6078 8.10335 7.55788 8.48373 7.52736 8.85305C7.49685 9.22238 7.48436 9.60468 7.48991 10C7.48991 10.3953 7.50552 10.7776 7.53673 11.1469C7.56793 11.5163 7.61682 11.8966 7.6834 12.288L7.68236 12.2889ZM14.7663 12.2889H18.8368C18.9439 11.923 19.0249 11.5505 19.0791 11.174C19.1355 10.7857 19.1636 10.3941 19.1634 10.002C19.1636 9.60995 19.1355 9.21835 19.0791 8.83004C19.0249 8.4535 18.9439 8.08098 18.8368 7.71508H14.7715C14.8409 8.1064 14.8908 8.49006 14.9213 8.86605C14.9518 9.24205 14.9674 9.621 14.9681 10.003C14.9681 10.385 14.9525 10.764 14.9213 11.14C14.8901 11.516 14.8402 11.8996 14.7715 12.291L14.7663 12.2889ZM14.4335 6.1351H18.1481C17.5946 5.06651 16.8059 4.12646 15.8367 3.38016C14.8667 2.6425 13.733 2.12927 12.5236 1.88019C12.9572 2.51755 13.3321 3.1901 13.6439 3.89016C13.9705 4.61647 14.2345 5.3673 14.4335 6.1351ZM8.05892 6.1351H12.7462C12.5085 5.29671 12.1873 4.48229 11.7871 3.70315C11.4008 2.95892 10.9369 2.2543 10.4026 1.60017C9.86837 2.25335 9.40448 2.95697 9.01801 3.70016C8.61795 4.4803 8.29608 5.29572 8.05892 6.1351ZM2.65804 6.1351H6.3727C6.57173 5.36798 6.8358 4.61784 7.16224 3.89217C7.47412 3.19212 7.84898 2.51957 8.28257 1.88221C7.07042 2.12807 5.93439 2.64159 4.96423 3.38217C4.00014 4.13103 3.21308 5.06973 2.65804 6.1351Z" fill="#7F56D9"/>
</svg>
