<svg width="25" height="20" viewBox="0 0 25 20" fill="none" xmlns="http://www.w3.org/2000/svg">
<g clip-path="url(#clip0_488_881)">
<path d="M1.5831 20C0.7092 20 0 19.2534 0 18.3334C0 17.4126 0.7092 16.6661 1.5831 16.6661H23.4162C24.291 16.6661 25.0002 17.4126 25.0002 18.3334C25.0002 19.2534 24.291 20 23.4162 20H1.5831ZM1.5831 11.6658C0.7092 11.6658 0 10.9203 0 9.99949C0 9.07946 0.7092 8.33316 1.5831 8.33316H23.4162C24.291 8.33316 25.0002 9.07946 25.0002 9.99949C25.0002 10.9203 24.291 11.6658 23.4162 11.6658H1.5831ZM1.5831 3.33291C0.7092 3.33291 0 2.58738 0 1.66632C0 0.745528 0.7092 0 1.5831 0H23.4162C24.291 0 25.0002 0.745528 25.0002 1.66632C25.0002 2.58738 24.291 3.33291 23.4162 3.33291H1.5831Z" fill="#19032B"/>
</g>
<defs>
<clipPath id="clip0_488_881">
<rect width="25.0002" height="20" fill="white"/>
</clipPath>
</defs>
</svg>
