<svg width="247" height="27" viewBox="0 0 247 27" fill="none" xmlns="http://www.w3.org/2000/svg">
<path d="M13.79 26.49C11.3167 26.49 9.15833 26.035 7.315 25.125C5.495 24.215 4.08333 22.9433 3.08 21.31C2.1 19.6767 1.61 17.81 1.61 15.71C1.61 12.91 2.25167 10.39 3.535 8.15C4.84167 5.91 6.65 4.16 8.96 2.9C11.2933 1.64 13.9417 1.01 16.905 1.01C19.3783 1.01 21.525 1.465 23.345 2.375C25.1883 3.285 26.6 4.55667 27.58 6.19C28.5833 7.82333 29.085 9.69 29.085 11.79C29.085 14.59 28.4317 17.11 27.125 19.35C25.8417 21.59 24.0333 23.34 21.7 24.6C19.39 25.86 16.7533 26.49 13.79 26.49ZM14.385 20.75C15.925 20.75 17.2783 20.365 18.445 19.595C19.6117 18.825 20.51 17.7983 21.14 16.515C21.77 15.2083 22.085 13.7733 22.085 12.21C22.085 10.5533 21.5717 9.235 20.545 8.255C19.5417 7.25167 18.13 6.75 16.31 6.75C14.77 6.75 13.4167 7.135 12.25 7.905C11.0833 8.675 10.185 9.71333 9.555 11.02C8.925 12.3033 8.61 13.7267 8.61 15.29C8.61 16.9467 9.11167 18.2767 10.115 19.28C11.1417 20.26 12.565 20.75 14.385 20.75ZM58.2296 6.715C60.2363 6.715 61.8463 7.275 63.0596 8.395C64.2729 9.515 64.8796 11.1017 64.8796 13.155C64.8796 13.925 64.7979 14.7067 64.6346 15.5L62.5696 26H55.9196L57.8796 16.2C57.9729 15.7567 58.0196 15.3133 58.0196 14.87C58.0196 14.03 57.8096 13.4 57.3896 12.98C56.9929 12.56 56.4096 12.35 55.6396 12.35C53.5163 12.35 52.1746 13.715 51.6146 16.445L49.6896 26H43.0396L45.0346 16.2C45.1279 15.8033 45.1746 15.3717 45.1746 14.905C45.1746 14.065 44.9646 13.435 44.5446 13.015C44.1479 12.5717 43.5646 12.35 42.7946 12.35C40.6479 12.35 39.2946 13.7383 38.7346 16.515L36.8446 26H30.1946L33.9746 7.03H40.2746L39.8896 8.955C41.4529 7.46167 43.3429 6.715 45.5596 6.715C46.8196 6.715 47.9513 6.98333 48.9546 7.52C49.9579 8.03333 50.7279 8.79167 51.2646 9.795C52.1513 8.79167 53.1779 8.03333 54.3446 7.52C55.5346 6.98333 56.8296 6.715 58.2296 6.715ZM79.5353 6.715C81.332 6.715 82.9303 7.04167 84.3303 7.695C85.7536 8.325 86.862 9.28167 87.6553 10.565C88.4486 11.8483 88.8453 13.4 88.8453 15.22C88.8453 15.4533 88.822 15.85 88.7753 16.41L74.7053 19C74.962 19.77 75.4286 20.3417 76.1053 20.715C76.8053 21.065 77.7386 21.24 78.9053 21.24C79.722 21.24 80.5153 21.1117 81.2853 20.855C82.0786 20.575 82.7903 20.19 83.4203 19.7L86.1853 23.865C83.9686 25.4983 81.2736 26.315 78.1003 26.315C76.0936 26.315 74.3203 25.965 72.7803 25.265C71.2636 24.5417 70.0853 23.5383 69.2453 22.255C68.4286 20.9483 68.0203 19.42 68.0203 17.67C68.0203 15.5933 68.4986 13.7267 69.4553 12.07C70.4353 10.39 71.7886 9.08333 73.5153 8.15C75.2653 7.19333 77.272 6.715 79.5353 6.715ZM79.1853 11.44C77.972 11.44 76.9803 11.8133 76.2103 12.56C75.4636 13.2833 74.962 14.2517 74.7053 15.465L82.6853 13.995C82.5453 13.1783 82.1603 12.5483 81.5303 12.105C80.9236 11.6617 80.142 11.44 79.1853 11.44ZM99.5146 9.13C101.101 7.52 103.388 6.715 106.375 6.715L105.22 12.7C104.636 12.63 104.135 12.595 103.715 12.595C102.221 12.595 101.02 12.9567 100.11 13.68C99.2229 14.38 98.6279 15.5 98.3246 17.04L96.5046 26H89.8546L93.6346 7.03H99.9346L99.5146 9.13ZM128.618 21.17C129.225 21.17 129.715 21.0767 130.088 20.89L129.388 25.825C128.385 26.1517 127.311 26.315 126.168 26.315C124.698 26.315 123.485 26.035 122.528 25.475C121.571 24.915 120.906 24.145 120.533 23.165C118.946 25.265 116.811 26.315 114.128 26.315C112.728 26.315 111.41 25.9767 110.173 25.3C108.96 24.6 107.98 23.5967 107.233 22.29C106.486 20.9833 106.113 19.4433 106.113 17.67C106.113 15.6167 106.568 13.7617 107.478 12.105C108.411 10.425 109.66 9.10667 111.223 8.15C112.81 7.19333 114.536 6.715 116.403 6.715C119.156 6.715 121.093 7.57833 122.213 9.305L122.668 7.03H129.318L126.938 18.825C126.891 19.1517 126.868 19.385 126.868 19.525C126.868 20.6217 127.451 21.17 128.618 21.17ZM116.438 20.96C117.768 20.96 118.853 20.47 119.693 19.49C120.533 18.51 120.953 17.2383 120.953 15.675C120.953 14.555 120.626 13.6683 119.973 13.015C119.343 12.3617 118.468 12.035 117.348 12.035C116.018 12.035 114.933 12.525 114.093 13.505C113.253 14.485 112.833 15.7683 112.833 17.355C112.833 18.475 113.148 19.3617 113.778 20.015C114.431 20.645 115.318 20.96 116.438 20.96ZM164.388 13.365C165.438 13.8317 166.243 14.485 166.803 15.325C167.386 16.1417 167.678 17.11 167.678 18.23C167.678 20.7733 166.639 22.71 164.563 24.04C162.486 25.3467 159.779 26 156.443 26H142.968L147.868 1.5H160.258C163.011 1.5 165.111 2.00167 166.558 3.005C168.028 3.985 168.763 5.39667 168.763 7.24C168.763 8.66333 168.378 9.9 167.608 10.95C166.838 11.9767 165.764 12.7817 164.388 13.365ZM153.713 6.505L152.768 11.23H157.738C158.974 11.23 159.908 10.9967 160.538 10.53C161.191 10.04 161.518 9.34 161.518 8.43C161.518 7.14667 160.549 6.505 158.613 6.505H153.713ZM156.828 20.995C158.064 20.995 159.033 20.75 159.733 20.26C160.433 19.77 160.783 19.0467 160.783 18.09C160.783 17.39 160.526 16.8767 160.013 16.55C159.499 16.2 158.799 16.025 157.913 16.025H151.788L150.808 20.995H156.828ZM193.037 21.17C193.644 21.17 194.134 21.0767 194.507 20.89L193.807 25.825C192.804 26.1517 191.73 26.315 190.587 26.315C189.117 26.315 187.904 26.035 186.947 25.475C185.99 24.915 185.325 24.145 184.952 23.165C183.365 25.265 181.23 26.315 178.547 26.315C177.147 26.315 175.829 25.9767 174.592 25.3C173.379 24.6 172.399 23.5967 171.652 22.29C170.905 20.9833 170.532 19.4433 170.532 17.67C170.532 15.6167 170.987 13.7617 171.897 12.105C172.83 10.425 174.079 9.10667 175.642 8.15C177.229 7.19333 178.955 6.715 180.822 6.715C183.575 6.715 185.512 7.57833 186.632 9.305L187.087 7.03H193.737L191.357 18.825C191.31 19.1517 191.287 19.385 191.287 19.525C191.287 20.6217 191.87 21.17 193.037 21.17ZM180.857 20.96C182.187 20.96 183.272 20.47 184.112 19.49C184.952 18.51 185.372 17.2383 185.372 15.675C185.372 14.555 185.045 13.6683 184.392 13.015C183.762 12.3617 182.887 12.035 181.767 12.035C180.437 12.035 179.352 12.525 178.512 13.505C177.672 14.485 177.252 15.7683 177.252 17.355C177.252 18.475 177.567 19.3617 178.197 20.015C178.85 20.645 179.737 20.96 180.857 20.96ZM212.181 6.715C214.258 6.715 215.915 7.275 217.151 8.395C218.411 9.49167 219.041 11.0783 219.041 13.155C219.041 13.925 218.96 14.7067 218.796 15.5L216.696 26H210.046L212.006 16.13C212.1 15.7333 212.146 15.3133 212.146 14.87C212.146 13.19 211.271 12.35 209.521 12.35C208.355 12.35 207.398 12.7117 206.651 13.435C205.905 14.135 205.38 15.1967 205.076 16.62L203.186 26H196.536L200.316 7.03H206.616L206.231 8.99C207.048 8.22 207.97 7.64833 208.996 7.275C210.023 6.90167 211.085 6.715 212.181 6.715ZM236.726 15.43L243.096 26H235.326L231.441 19.525L228.711 21.905L227.906 26H221.256L226.436 0.0299985H233.086L230.391 13.505L238.056 7.03H246.456L236.726 15.43Z" fill="#202020"/>
</svg>
