<svg width="11" height="7" viewBox="0 0 11 7" fill="none" xmlns="http://www.w3.org/2000/svg">
<path d="M5.51685 5.90339C5.46747 5.95723 5.40744 6.00022 5.34057 6.02962C5.2737 6.05903 5.20144 6.07422 5.12839 6.07422C5.05533 6.07422 4.98308 6.05903 4.9162 6.02962C4.84933 6.00022 4.7893 5.95723 4.73993 5.90339L0.14057 0.885524C0.0707436 0.810235 0.0244303 0.71619 0.0073185 0.614941C-0.00979424 0.513693 0.00304031 0.40965 0.0442448 0.315596C0.0854502 0.221541 0.15323 0.141571 0.23926 0.0855083C0.325289 0.0294456 0.425821 -0.000267506 0.528505 1.90735e-05L9.72722 1.90735e-05C9.82958 -9.34601e-05 9.92976 0.029603 10.0155 0.0854831C10.1013 0.141363 10.1689 0.221008 10.2102 0.314692C10.2514 0.408376 10.2645 0.512044 10.2478 0.613039C10.2311 0.714034 10.1854 0.807983 10.1162 0.883416L5.51685 5.90339Z" fill="#006DE7"/>
</svg>
