<svg width="22" height="22" viewBox="0 0 22 22" fill="none" xmlns="http://www.w3.org/2000/svg">
<path d="M9.54648 15.966V4.086L6.05949 7.573L4.5695 6.039L10.6075 0L16.6455 6.03802L15.1555 7.57202L11.6685 4.08502V15.965L9.54648 15.966ZM2.5565 21.215C2.21949 21.2218 1.88465 21.1594 1.57267 21.0318C1.26068 20.9042 0.978151 20.714 0.742485 20.473C0.501484 20.2374 0.311322 19.9548 0.183708 19.6428C0.0560932 19.3308 -0.0062576 18.996 0.000495388 18.659V14.824H2.12148V18.659C2.12253 18.7156 2.13514 18.7715 2.15853 18.8231C2.18192 18.8746 2.21559 18.9209 2.25748 18.959C2.2956 19.0009 2.34187 19.0346 2.39346 19.058C2.44504 19.0814 2.50086 19.0939 2.55749 19.095H18.6575C18.7141 19.0939 18.7699 19.0814 18.8215 19.058C18.8731 19.0346 18.9194 19.0009 18.9575 18.959C18.9994 18.9209 19.0331 18.8746 19.0564 18.8231C19.0798 18.7715 19.0924 18.7156 19.0935 18.659V14.824H21.2145V18.659C21.2212 18.996 21.1589 19.3308 21.0313 19.6428C20.9037 19.9548 20.7135 20.2374 20.4725 20.473C20.2368 20.714 19.9543 20.9042 19.6423 21.0318C19.3303 21.1594 18.9955 21.2218 18.6585 21.215H2.5565Z" fill="#006DE7"/>
</svg>
