<svg width="23" height="21" viewBox="0 0 23 21" fill="none" xmlns="http://www.w3.org/2000/svg">
<path d="M4.45074 9.68842V9.33462C4.45074 8.16634 4.44804 6.99817 4.4515 5.8299C4.45592 4.32873 5.45586 3.32857 6.95487 3.3276C9.98253 3.32566 13.0102 3.32577 16.038 3.32749C17.5407 3.32836 18.5419 4.32431 18.5473 5.82364C18.5511 6.91999 18.5479 8.01634 18.5479 9.11269V9.45054H18.8793C19.8856 9.45054 20.8933 9.48526 21.8973 9.439C22.6354 9.40492 23.1516 10.2716 22.961 10.9164C22.8497 11.2931 22.514 11.5437 22.0941 11.5708C22.0046 11.5765 21.9145 11.5728 21.8246 11.5728C14.9248 11.5729 8.02501 11.5729 1.12513 11.5727C1.03531 11.5727 0.945158 11.5761 0.855656 11.5692C0.296212 11.5266 -0.0130564 11.1753 0.000422876 10.6011C0.0126081 10.0859 0.387548 9.69597 0.906985 9.69165C1.97605 9.6827 3.04512 9.68864 4.1143 9.68842H4.45074Z" fill="#006DE7"/>
<path d="M4.47239 12.9961H18.4929C18.4929 13.8702 18.5812 14.7411 18.4707 15.586C18.3296 16.664 17.3371 17.4462 16.2413 17.4509C13.0779 17.4646 9.91424 17.4665 6.75081 17.4501C5.56129 17.444 4.57095 16.5269 4.48317 15.3411C4.42591 14.5663 4.47239 13.7838 4.47239 12.9961Z" fill="#006DE7"/>
<path d="M17.4656 0C18.0645 0.0372028 18.6772 0.00700922 19.2599 0.124872C20.7602 0.428317 21.7847 1.72147 21.8283 3.29994C21.8498 4.08077 21.8408 4.86278 21.8308 5.64415C21.8224 6.29709 21.4855 6.63116 20.876 6.62178C20.3207 6.61326 19.9597 6.22247 19.9565 5.61514C19.9525 4.90549 19.9567 4.19594 19.9551 3.48639C19.9529 2.5093 19.3699 1.92312 18.4013 1.92215C17.665 1.9215 16.9285 1.92959 16.1923 1.91805C15.6933 1.91028 15.3154 1.56586 15.2683 1.10864C15.2146 0.58651 15.4927 0.175554 15.9844 0.0608185C16.0793 0.0387125 16.1801 0.0366636 16.2783 0.0360166C16.6734 0.0334286 17.0685 0.0349383 17.4637 0.0349383C17.4642 0.0232922 17.4651 0.0116461 17.4656 0Z" fill="#006DE7"/>
<path d="M5.52444 20.7861C4.92575 20.7475 4.31282 20.7772 3.73094 20.657C2.23496 20.3478 1.21765 19.0691 1.17085 17.5039C1.14734 16.7142 1.15349 15.923 1.16923 15.1329C1.18422 14.3823 1.87436 13.938 2.5191 14.2506C2.87841 14.4248 3.0407 14.7298 3.04199 15.1225C3.04436 15.85 3.04188 16.5776 3.0435 17.3051C3.04555 18.2765 3.63281 18.8622 4.60386 18.8627C5.30424 18.8631 6.00463 18.8607 6.70501 18.8635C7.33854 18.8661 7.74119 19.2411 7.73688 19.8176C7.73256 20.3813 7.33163 20.747 6.71202 20.7496C6.31691 20.7513 5.92181 20.7499 5.52671 20.7499L5.52444 20.7861Z" fill="#006DE7"/>
<path d="M21.8679 16.4367C21.8301 17.0088 21.8485 17.5916 21.7434 18.1511C21.4655 19.6331 20.1279 20.7255 18.6225 20.7473C17.8145 20.7591 17.0061 20.7545 16.198 20.749C15.6072 20.7449 15.2687 20.4085 15.2618 19.8367C15.255 19.2808 15.6303 18.8771 16.1939 18.8676C16.948 18.8551 17.7024 18.8649 18.4567 18.8632C19.3404 18.861 19.9465 18.2638 19.9542 17.3782C19.9607 16.6506 19.9537 15.9231 19.9563 15.1955C19.9585 14.5672 20.319 14.1662 20.8773 14.1641C21.3936 14.1621 21.824 14.6226 21.8324 15.195C21.8383 15.608 21.8335 16.0213 21.8335 16.4345C21.845 16.4352 21.8565 16.4359 21.8679 16.4367Z" fill="#006DE7"/>
<path d="M5.56125 0.0349714C5.96542 0.0347557 6.36958 0.030658 6.77363 0.0357262C7.3444 0.0429511 7.73584 0.427704 7.73681 0.974315C7.73778 1.51909 7.34839 1.91236 6.77762 1.91916C6.02332 1.92811 5.26892 1.91981 4.51451 1.92239C3.66747 1.92531 3.05497 2.52821 3.04494 3.3802C3.03621 4.11671 3.04494 4.85344 3.04225 5.59005C3.03987 6.21775 2.67787 6.61965 2.11983 6.62127C1.60385 6.62278 1.16701 6.16093 1.1669 5.58919C1.1669 4.72716 1.13682 3.86179 1.19936 3.00376C1.31614 1.40403 2.79725 0.0586949 4.40268 0.0359419C4.78884 0.0305502 5.1751 0.035187 5.56125 0.0349714Z" fill="#006DE7"/>
</svg>
