<svg width="22" height="22" viewBox="0 0 22 22" fill="none" xmlns="http://www.w3.org/2000/svg">
<path d="M10.542 21.0837C9.1352 21.0918 7.74194 20.809 6.44967 20.253C5.19729 19.7191 4.05841 18.9509 3.09424 17.9897C2.13307 17.0255 1.36488 15.8867 0.830938 14.6343C0.274945 13.342 -0.00787251 11.9487 0.000247966 10.542C-0.00958767 9.13231 0.273276 7.73593 0.830938 6.44123C1.36636 5.19216 2.13443 4.05632 3.09424 3.09424C4.05843 2.13306 5.19731 1.3649 6.44967 0.830959C7.74195 0.274995 9.13521 -0.00784517 10.542 0.00024492C11.9516 -0.00952946 13.348 0.273356 14.6427 0.830959C15.8917 1.36642 17.0276 2.13447 17.9897 3.09424C18.9495 4.05632 19.7176 5.19216 20.253 6.44123C20.8107 7.73593 21.0935 9.13231 21.0837 10.542C21.0918 11.9487 20.809 13.342 20.253 14.6343C19.7191 15.8867 18.9509 17.0255 17.9897 17.9897C17.0276 18.9495 15.8918 19.7175 14.6427 20.253C13.348 20.8106 11.9516 21.0935 10.542 21.0837ZM10.542 19.397C11.0847 18.6832 11.563 17.9226 11.9714 17.1242C12.3733 16.324 12.6913 15.4842 12.9202 14.6185H8.17009C8.40627 15.4965 8.72646 16.3497 9.12622 17.1664C9.52126 17.956 9.99563 18.7034 10.542 19.397ZM8.39357 19.0924C7.94386 18.4379 7.56003 17.7405 7.24769 17.0104C6.91126 16.2395 6.64694 15.4391 6.45811 14.6195H2.69366C3.25979 15.7471 4.06446 16.7381 5.05184 17.5237C6.02707 18.3023 7.17244 18.8394 8.39462 19.0913L8.39357 19.0924ZM12.6914 19.0924C13.9133 18.84 15.0583 18.3025 16.0332 17.5237C17.0205 16.7381 17.8252 15.7471 18.3913 14.6195H14.6269C14.4047 15.4394 14.1228 16.2421 13.7836 17.0209C13.4762 17.7395 13.1109 18.4319 12.6914 19.0913V19.0924ZM1.99579 12.955H6.12077C6.0505 12.5424 5.9999 12.138 5.96898 11.7416C5.93805 11.3453 5.92259 10.9454 5.92259 10.542C5.92259 10.1393 5.93841 9.73972 5.97003 9.34335C6.00166 8.94698 6.05225 8.54253 6.12183 8.13H1.99685C1.88824 8.51573 1.80618 8.90851 1.75123 9.30546C1.6941 9.71516 1.66556 10.1283 1.66584 10.542C1.66561 10.9553 1.69414 11.3681 1.75123 11.7775C1.80617 12.1744 1.88823 12.5671 1.99685 12.9529L1.99579 12.955ZM7.78532 12.955H13.2997C13.37 12.5424 13.4206 12.1415 13.4515 11.7522C13.4824 11.3628 13.4965 10.9594 13.4937 10.542C13.4937 10.1252 13.4778 9.72221 13.4462 9.33287C13.4146 8.94352 13.364 8.54253 13.2944 8.13H7.78004C7.70976 8.54253 7.65916 8.94352 7.62824 9.33287C7.59732 9.72221 7.58467 10.1252 7.59029 10.542C7.59029 10.9587 7.60611 11.3617 7.63773 11.7511C7.66936 12.1404 7.7189 12.5414 7.78637 12.9539L7.78532 12.955ZM14.9642 12.955H19.0892C19.1978 12.5692 19.2799 12.1765 19.3348 11.7796C19.3919 11.3702 19.4204 10.9574 19.4202 10.5441C19.4204 10.1308 19.3919 9.71796 19.3348 9.30861C19.2799 8.91166 19.1978 8.51895 19.0892 8.13322H14.9695C15.0398 8.54575 15.0904 8.9502 15.1213 9.34657C15.1522 9.74294 15.168 10.1424 15.1687 10.5451C15.1687 10.9478 15.1529 11.3474 15.1213 11.7437C15.0897 12.1401 15.0391 12.5446 14.9695 12.9571L14.9642 12.955ZM14.6269 6.46761H18.3913C17.8304 5.3411 17.0312 4.3501 16.049 3.56335C15.0659 2.78571 13.9171 2.24467 12.6914 1.98209C13.1308 2.654 13.5107 3.363 13.8268 4.10099C14.1577 4.86667 14.4253 5.65819 14.6269 6.46761ZM8.16693 6.46761H12.917C12.6762 5.58378 12.3507 4.72522 11.9451 3.90385C11.5536 3.11929 11.0835 2.37647 10.542 1.6869C10.0006 2.37547 9.53051 3.11723 9.13887 3.9007C8.73345 4.72312 8.40726 5.58274 8.16693 6.46761ZM2.69366 6.46761H6.45811C6.65981 5.65891 6.92741 4.86812 7.25823 4.10312C7.57429 3.36512 7.95417 2.65612 8.39357 1.98422C7.16518 2.24341 6.01392 2.78476 5.03076 3.56548C4.05375 4.35492 3.25614 5.34449 2.69366 6.46761Z" fill="#006DE7"/>
</svg>
