<svg width="351" height="351" viewBox="0 0 351 351" fill="none" xmlns="http://www.w3.org/2000/svg">
<path d="M336.809 3.40692C342.419 3.40692 346.983 7.9708 346.983 13.5812V32.9539H349.89V13.5812C349.89 6.36811 344.022 0.5 336.809 0.5H317.374V3.40692H336.809Z" fill="#006DE7" stroke="#006DE7"/>
<path d="M3.40692 13.5812C3.40692 7.9708 7.9708 3.40692 13.5812 3.40692H32.9684V0.5H13.5812C6.36811 0.5 0.5 6.36811 0.5 13.5812V32.9539H3.40692V13.5812Z" fill="#006DE7" stroke="#006DE7"/>
<path d="M346.983 336.809C346.983 342.419 342.419 346.983 336.809 346.983H317.374V349.89H336.809C344.022 349.89 349.89 344.022 349.89 336.809V317.359H346.983V336.809Z" fill="#006DE7" stroke="#006DE7"/>
<path d="M13.5812 346.983C7.9708 346.983 3.40692 342.419 3.40692 336.809V317.359H0.5V336.809C0.5 344.022 6.36811 349.89 13.5812 349.89H32.9684V346.983H13.5812Z" fill="#006DE7" stroke="#006DE7"/>
</svg>
