<svg width="97" height="97" viewBox="0 0 97 97" fill="none" xmlns="http://www.w3.org/2000/svg">
<path opacity="0.3" d="M0 42.7474V0H42.7474V42.7474H0ZM8.54936 34.198H34.198V8.54938H8.54936V34.198ZM0 96.8941V54.1467H42.7474V96.8941H0ZM8.54936 88.3447H34.198V62.6961H8.54936V88.3447ZM54.1467 42.7474V0H96.8941V42.7474H54.1467ZM62.6961 34.198H88.3447V8.54938H62.6961V34.198ZM86.2072 96.8941V86.2072H96.8941V96.8941H86.2072ZM54.1467 64.8336V54.1467H64.8336V64.8336H54.1467ZM64.8336 75.5203V64.8336H75.5203V75.5203H64.8336ZM54.1467 86.2072V75.5203H64.8336V86.2072H54.1467ZM64.8336 96.8941V86.2072H75.5203V96.8941H64.8336ZM75.5203 86.2072V75.5203H86.2072V86.2072H75.5203ZM75.5203 64.8336V54.1467H86.2072V64.8336H75.5203ZM86.2072 75.5203V64.8336H96.8941V75.5203H86.2072Z" fill="#006DE7"/>
</svg>
