<svg width="325" height="36" viewBox="0 0 325 36" fill="none" xmlns="http://www.w3.org/2000/svg">
<path d="M22.89 11.3401C20.9767 10.2435 18.9817 9.50847 16.905 9.13514L13.125 28.1401H6.16L10.01 8.99513C7.58333 9.34514 5.40167 10.0918 3.465 11.2351L1.75 6.12514C3.29 5.16847 5.15667 4.43347 7.35 3.92014C9.54333 3.4068 11.7483 3.15014 13.965 3.15014C16.2517 3.15014 18.4217 3.41847 20.475 3.95514C22.5283 4.4918 24.3367 5.27347 25.9 6.30014L22.89 11.3401ZM33.0187 11.2701C34.6053 9.66014 36.892 8.85514 39.8787 8.85514L38.7237 14.8401C38.1403 14.7701 37.6387 14.7351 37.2187 14.7351C35.7253 14.7351 34.5237 15.0968 33.6137 15.8201C32.727 16.5201 32.132 17.6401 31.8287 19.1801L30.0087 28.1401H23.3587L27.1387 9.17013H33.4387L33.0187 11.2701ZM62.2563 23.3101C62.8629 23.3101 63.3529 23.2168 63.7263 23.0301L63.0263 27.9651C62.0229 28.2918 60.9496 28.4551 59.8063 28.4551C58.3129 28.4551 57.0879 28.1635 56.1313 27.5801C55.1746 26.9968 54.5096 26.2035 54.1363 25.2001C53.2729 26.2735 52.2463 27.0901 51.0563 27.6501C49.8896 28.1868 48.6646 28.4551 47.3813 28.4551C45.3046 28.4551 43.6479 27.8951 42.4113 26.7751C41.1979 25.6551 40.5913 24.0568 40.5913 21.9801C40.5913 21.2101 40.6729 20.4285 40.8363 19.6351L42.9363 9.17013H49.5863L47.6263 19.0051C47.5329 19.4485 47.4863 19.8801 47.4863 20.3001C47.4863 21.9568 48.3379 22.7851 50.0413 22.7851C51.1846 22.7851 52.1296 22.4351 52.8763 21.7351C53.6229 21.0118 54.1363 19.9501 54.4163 18.5501L56.3063 9.17013H62.9563L60.5763 21.1401C60.5296 21.4201 60.5063 21.6185 60.5063 21.7351C60.5063 22.2718 60.6579 22.6685 60.9613 22.9251C61.2879 23.1818 61.7196 23.3101 62.2563 23.3101ZM75.9186 28.4551C73.9119 28.4551 72.1502 28.1051 70.6336 27.4051C69.1402 26.6818 67.9736 25.6668 67.1336 24.3601C66.3169 23.0535 65.9086 21.5368 65.9086 19.8101C65.9086 17.7335 66.4102 15.8668 67.4136 14.2101C68.4169 12.5535 69.8169 11.2468 71.6136 10.2901C73.4102 9.33347 75.4286 8.85514 77.6686 8.85514C79.8152 8.85514 81.6702 9.31014 83.2336 10.2201C84.7969 11.1068 85.9402 12.3668 86.6636 14.0001L80.9936 16.6951C80.2936 15.0151 79.0686 14.1751 77.3186 14.1751C75.9652 14.1751 74.8452 14.6651 73.9586 15.6451C73.0952 16.6251 72.6636 17.8851 72.6636 19.4251C72.6636 20.5451 72.9786 21.4435 73.6086 22.1201C74.2619 22.7735 75.1836 23.1001 76.3736 23.1001C77.2602 23.1001 78.0419 22.9018 78.7186 22.5051C79.3952 22.1085 79.9786 21.4785 80.4686 20.6151L85.3336 23.5551C84.4236 25.0951 83.1402 26.2968 81.4836 27.1601C79.8502 28.0235 77.9952 28.4551 75.9186 28.4551ZM102.12 17.5701L108.49 28.1401H100.72L96.8349 21.6651L94.1049 24.0451L93.2999 28.1401H86.6499L91.8299 2.17014H98.4799L95.7849 15.6451L103.45 9.17013H111.85L102.12 17.5701ZM125.92 3.64014C129.093 3.64014 131.543 4.32847 133.27 5.70514C134.996 7.0818 135.86 9.01847 135.86 11.5151C135.86 13.5685 135.358 15.3651 134.355 16.9051C133.375 18.4451 131.963 19.6351 130.12 20.4751C128.3 21.3151 126.176 21.7351 123.75 21.7351H118.85L117.59 28.1401H110.66L115.56 3.64014H125.92ZM124.065 16.2751C125.605 16.2751 126.783 15.9135 127.6 15.1901C128.44 14.4668 128.86 13.4401 128.86 12.1101C128.86 11.1068 128.521 10.3601 127.845 9.87014C127.191 9.3568 126.246 9.10014 125.01 9.10014H121.37L119.935 16.2751H124.065ZM159.259 23.3101C159.866 23.3101 160.356 23.2168 160.729 23.0301L160.029 27.9651C159.026 28.2918 157.953 28.4551 156.809 28.4551C155.339 28.4551 154.126 28.1751 153.169 27.6151C152.213 27.0551 151.548 26.2851 151.174 25.3051C149.588 27.4051 147.453 28.4551 144.769 28.4551C143.369 28.4551 142.051 28.1168 140.814 27.4401C139.601 26.7401 138.621 25.7368 137.874 24.4301C137.128 23.1235 136.754 21.5835 136.754 19.8101C136.754 17.7568 137.209 15.9018 138.119 14.2451C139.053 12.5651 140.301 11.2468 141.864 10.2901C143.451 9.33347 145.178 8.85514 147.044 8.85514C149.798 8.85514 151.734 9.71847 152.854 11.4451L153.309 9.17013H159.959L157.579 20.9651C157.533 21.2918 157.509 21.5251 157.509 21.6651C157.509 22.7618 158.093 23.3101 159.259 23.3101ZM147.079 23.1001C148.409 23.1001 149.494 22.6101 150.334 21.6301C151.174 20.6501 151.594 19.3785 151.594 17.8151C151.594 16.6951 151.268 15.8085 150.614 15.1551C149.984 14.5018 149.109 14.1751 147.989 14.1751C146.659 14.1751 145.574 14.6651 144.734 15.6451C143.894 16.6251 143.474 17.9085 143.474 19.4951C143.474 20.6151 143.789 21.5018 144.419 22.1551C145.073 22.7851 145.959 23.1001 147.079 23.1001ZM170.178 28.4551C168.545 28.4551 166.97 28.2801 165.453 27.9301C163.96 27.5801 162.793 27.1368 161.953 26.6001L164.368 21.9451C165.232 22.4818 166.258 22.9135 167.448 23.2401C168.638 23.5435 169.805 23.6951 170.948 23.6951C172.978 23.6951 173.993 23.2401 173.993 22.3301C173.993 21.9568 173.748 21.6885 173.258 21.5251C172.792 21.3385 172.033 21.1635 170.983 21.0001C169.583 20.7435 168.428 20.4751 167.518 20.1951C166.632 19.8918 165.85 19.3901 165.173 18.6901C164.497 17.9901 164.158 17.0101 164.158 15.7501C164.158 13.5568 165.092 11.8651 166.958 10.6751C168.848 9.4618 171.287 8.85514 174.273 8.85514C175.627 8.85514 176.933 8.99514 178.193 9.27514C179.453 9.5318 180.55 9.89347 181.483 10.3601L179.138 15.0151C177.552 14.0585 175.673 13.5801 173.503 13.5801C172.477 13.5801 171.707 13.7201 171.193 14.0001C170.703 14.2568 170.458 14.5951 170.458 15.0151C170.458 15.3885 170.692 15.6685 171.158 15.8551C171.648 16.0185 172.442 16.2051 173.538 16.4151C174.892 16.6485 176.012 16.9168 176.898 17.2201C177.808 17.5235 178.59 18.0251 179.243 18.7251C179.92 19.4251 180.258 20.3818 180.258 21.5951C180.258 23.7885 179.313 25.4801 177.423 26.6701C175.533 27.8601 173.118 28.4551 170.178 28.4551ZM189.669 28.4551C188.036 28.4551 186.461 28.2801 184.944 27.9301C183.451 27.5801 182.284 27.1368 181.444 26.6001L183.859 21.9451C184.722 22.4818 185.749 22.9135 186.939 23.2401C188.129 23.5435 189.296 23.6951 190.439 23.6951C192.469 23.6951 193.484 23.2401 193.484 22.3301C193.484 21.9568 193.239 21.6885 192.749 21.5251C192.282 21.3385 191.524 21.1635 190.474 21.0001C189.074 20.7435 187.919 20.4751 187.009 20.1951C186.122 19.8918 185.341 19.3901 184.664 18.6901C183.987 17.9901 183.649 17.0101 183.649 15.7501C183.649 13.5568 184.582 11.8651 186.449 10.6751C188.339 9.4618 190.777 8.85514 193.764 8.85514C195.117 8.85514 196.424 8.99514 197.684 9.27514C198.944 9.5318 200.041 9.89347 200.974 10.3601L198.629 15.0151C197.042 14.0585 195.164 13.5801 192.994 13.5801C191.967 13.5801 191.197 13.7201 190.684 14.0001C190.194 14.2568 189.949 14.5951 189.949 15.0151C189.949 15.3885 190.182 15.6685 190.649 15.8551C191.139 16.0185 191.932 16.2051 193.029 16.4151C194.382 16.6485 195.502 16.9168 196.389 17.2201C197.299 17.5235 198.081 18.0251 198.734 18.7251C199.411 19.4251 199.749 20.3818 199.749 21.5951C199.749 23.7885 198.804 25.4801 196.914 26.6701C195.024 27.8601 192.609 28.4551 189.669 28.4551ZM242.305 3.64014L226.94 28.1401H220.115L214.55 3.64014H221.655L225.155 19.5651L235.165 3.64014H242.305ZM249.653 8.85514C251.45 8.85514 253.048 9.1818 254.448 9.83514C255.871 10.4651 256.98 11.4218 257.773 12.7051C258.566 13.9885 258.963 15.5401 258.963 17.3601C258.963 17.5935 258.94 17.9901 258.893 18.5501L244.823 21.1401C245.08 21.9101 245.546 22.4818 246.223 22.8551C246.923 23.2051 247.856 23.3801 249.023 23.3801C249.84 23.3801 250.633 23.2518 251.403 22.9951C252.196 22.7151 252.908 22.3301 253.538 21.8401L256.303 26.0051C254.086 27.6385 251.391 28.4551 248.218 28.4551C246.211 28.4551 244.438 28.1051 242.898 27.4051C241.381 26.6818 240.203 25.6785 239.363 24.3951C238.546 23.0885 238.138 21.5601 238.138 19.8101C238.138 17.7335 238.616 15.8668 239.573 14.2101C240.553 12.5301 241.906 11.2235 243.633 10.2901C245.383 9.33347 247.39 8.85514 249.653 8.85514ZM249.303 13.5801C248.09 13.5801 247.098 13.9535 246.328 14.7001C245.581 15.4235 245.08 16.3918 244.823 17.6051L252.803 16.1351C252.663 15.3185 252.278 14.6885 251.648 14.2451C251.041 13.8018 250.26 13.5801 249.303 13.5801ZM269.632 11.2701C271.219 9.66014 273.506 8.85514 276.492 8.85514L275.337 14.8401C274.754 14.7701 274.252 14.7351 273.832 14.7351C272.339 14.7351 271.137 15.0968 270.227 15.8201C269.341 16.5201 268.746 17.6401 268.442 19.1801L266.622 28.1401H259.972L263.752 9.17013H270.052L269.632 11.2701ZM279.552 9.17013H286.167L282.387 28.1401H275.772L279.552 9.17013ZM283.787 7.07013C282.643 7.07013 281.722 6.75514 281.022 6.12514C280.322 5.49514 279.972 4.71347 279.972 3.78014C279.972 2.68347 280.357 1.78514 281.127 1.08513C281.92 0.361802 282.958 0.000136018 284.242 0.000136018C285.408 0.000136018 286.342 0.303469 287.042 0.910135C287.742 1.49347 288.092 2.2518 288.092 3.18513C288.092 4.32847 287.695 5.2618 286.902 5.98514C286.108 6.70847 285.07 7.07013 283.787 7.07013ZM299.8 6.96514C299.077 6.96514 298.505 7.17514 298.085 7.59514C297.688 7.9918 297.397 8.6218 297.21 9.48513L297.105 9.87014H301.62L300.605 14.8401H296.335L293.64 28.1401H286.99L290.805 9.10014C291.248 6.86014 292.228 5.09847 293.745 3.81513C295.285 2.50847 297.292 1.85514 299.765 1.85514C301.655 1.85514 303.183 2.19347 304.35 2.87013L301.795 7.52514C301.188 7.1518 300.523 6.96514 299.8 6.96514ZM324.573 9.17013L321.493 24.7451C320.769 28.4085 319.369 31.0685 317.293 32.7251C315.239 34.4051 312.509 35.2451 309.103 35.2451C305.299 35.2451 302.266 34.4168 300.002 32.7601L302.943 28.1051C303.736 28.7351 304.693 29.2251 305.813 29.5751C306.933 29.9485 308.088 30.1351 309.278 30.1351C310.911 30.1351 312.136 29.7735 312.953 29.0501C313.769 28.3501 314.318 27.2651 314.598 25.7951L314.703 25.3051C313.909 25.9118 313.046 26.3785 312.113 26.7051C311.203 27.0085 310.258 27.1601 309.278 27.1601C307.201 27.1601 305.544 26.6118 304.308 25.5151C303.094 24.3951 302.488 22.7968 302.488 20.7201C302.488 19.9501 302.569 19.1685 302.733 18.3751L304.553 9.17013H311.203L309.488 17.7451C309.394 18.3518 309.348 18.7601 309.348 18.9701C309.348 20.6735 310.199 21.5251 311.903 21.5251C313.046 21.5251 313.991 21.1751 314.738 20.4751C315.484 19.7518 316.009 18.6785 316.313 17.2551L317.923 9.17013H324.573Z" fill="#202020"/>
</svg>
