<svg width="12" height="12" viewBox="0 0 12 12" fill="none" xmlns="http://www.w3.org/2000/svg">
<path d="M1.03101 6.174C0.989338 6.06174 0.989338 5.93825 1.03101 5.826C1.43686 4.84192 2.12577 4.00052 3.01039 3.40845C3.89502 2.81638 4.93553 2.50031 6.00001 2.50031C7.06449 2.50031 8.105 2.81638 8.98962 3.40845C9.87425 4.00052 10.5632 4.84192 10.969 5.826C11.0107 5.93825 11.0107 6.06174 10.969 6.174C10.5632 7.15807 9.87425 7.99948 8.98962 8.59155C8.105 9.18362 7.06449 9.49969 6.00001 9.49969C4.93553 9.49969 3.89502 9.18362 3.01039 8.59155C2.12577 7.99948 1.43686 7.15807 1.03101 6.174Z" stroke="#666666" stroke-linecap="round" stroke-linejoin="round"/>
<path d="M6 7.5C6.82843 7.5 7.5 6.82843 7.5 6C7.5 5.17157 6.82843 4.5 6 4.5C5.17157 4.5 4.5 5.17157 4.5 6C4.5 6.82843 5.17157 7.5 6 7.5Z" stroke="#666666" stroke-linecap="round" stroke-linejoin="round"/>
</svg>
