<svg width="24" height="22" viewBox="0 0 24 22" fill="none" xmlns="http://www.w3.org/2000/svg">
  <mask id="mask0_57_329" style="mask-type:luminance" maskUnits="userSpaceOnUse" x="0" y="0" width="24" height="22">
  <path d="M23.5005 0.606934H0.499512V21.3929H23.5005V0.606934Z" fill="white"/>
  </mask>
  <g mask="url(#mask0_57_329)">
  <path d="M4.95028 10.2954V9.94145C4.95028 8.77345 4.95028 7.60545 4.95028 6.44145C4.93128 6.10817 4.98293 5.77464 5.10184 5.46271C5.22076 5.15079 5.40425 4.86752 5.6403 4.63147C5.87635 4.39543 6.15962 4.21193 6.47154 4.09302C6.78346 3.9741 7.117 3.92245 7.45028 3.94145C10.4776 3.94145 13.5053 3.94145 16.5333 3.94145C16.8673 3.92097 17.2019 3.97153 17.515 4.08979C17.8281 4.20806 18.1126 4.39135 18.3496 4.62758C18.5867 4.8638 18.771 5.1476 18.8904 5.46026C19.0098 5.77292 19.0616 6.10733 19.0423 6.44145C19.0423 7.54145 19.0423 8.63445 19.0423 9.73045V10.0685H19.3733C20.3793 10.0685 21.3873 10.1035 22.3913 10.0565C22.5651 10.0672 22.7344 10.1163 22.887 10.2005C23.0395 10.2846 23.1714 10.4015 23.2732 10.5428C23.375 10.6842 23.4442 10.8464 23.4757 11.0177C23.5072 11.189 23.5002 11.3652 23.4553 11.5335C23.3972 11.7194 23.2824 11.8825 23.1269 11.9998C22.9714 12.1171 22.783 12.1827 22.5883 12.1875C22.4983 12.1935 22.4083 12.1875 22.3183 12.1875H1.62428C1.53428 12.1875 1.44428 12.1875 1.35528 12.1875C1.23191 12.1883 1.10982 12.1624 0.997333 12.1118C0.884847 12.0611 0.78461 11.9868 0.703457 11.8939C0.622305 11.8009 0.562146 11.6916 0.527082 11.5733C0.492019 11.455 0.482876 11.3306 0.500277 11.2085C0.499078 11.0889 0.521704 10.9703 0.566836 10.8596C0.611967 10.7489 0.678699 10.6484 0.763135 10.5637C0.847571 10.4791 0.948019 10.4122 1.05861 10.3668C1.16921 10.3214 1.28774 10.2985 1.40728 10.2995C2.47628 10.2905 3.54528 10.2995 4.61428 10.2995H4.95028" fill="url(#paint0_linear_57_329)"/>
  <path d="M4.97213 13.603H18.9921C19.0402 14.4659 19.0329 15.3311 18.9701 16.193C18.8829 16.719 18.6101 17.1964 18.2012 17.5385C17.7922 17.8807 17.2743 18.065 16.7411 18.058C13.5778 18.072 10.4145 18.072 7.25113 18.058C6.6772 18.0559 6.12512 17.8377 5.70483 17.4469C5.28454 17.0561 5.02687 16.5213 4.98313 15.949C4.92613 15.174 4.97213 14.391 4.97213 13.603Z" fill="url(#paint1_linear_57_329)"/>
  <path d="M17.9653 0.606934C18.5654 0.607865 19.1648 0.649628 19.7593 0.731934C20.4876 0.884854 21.1409 1.2841 21.6092 1.86242C22.0775 2.44074 22.3321 3.16279 22.3303 3.90693C22.3513 4.68793 22.3433 5.46993 22.3303 6.25093C22.3486 6.38164 22.3367 6.51479 22.2955 6.64018C22.2543 6.76557 22.185 6.87987 22.0928 6.97429C22.0006 7.06872 21.888 7.14076 21.7636 7.1849C21.6392 7.22905 21.5064 7.24411 21.3753 7.22893C21.2466 7.23015 21.1192 7.20422 21.0012 7.15285C20.8833 7.10147 20.7775 7.0258 20.6908 6.93077C20.6041 6.83575 20.5383 6.7235 20.4979 6.60136C20.4575 6.47922 20.4433 6.34993 20.4563 6.22193C20.4563 5.51193 20.4563 4.80293 20.4563 4.09293C20.4756 3.88358 20.4488 3.67252 20.3777 3.47466C20.3066 3.2768 20.1929 3.09695 20.0448 2.9478C19.8966 2.79866 19.7175 2.68385 19.5201 2.61147C19.3227 2.5391 19.1118 2.51092 18.9023 2.52893C18.1663 2.52893 17.4293 2.53593 16.6933 2.52893C16.4661 2.53383 16.2452 2.45352 16.0742 2.30381C15.9032 2.15409 15.7945 1.94581 15.7693 1.71993C15.7304 1.48663 15.7833 1.24733 15.9167 1.05204C16.0501 0.856751 16.2538 0.720566 16.4853 0.671934C16.5821 0.652827 16.6807 0.644444 16.7793 0.646934C17.1793 0.646934 17.5693 0.646934 17.9643 0.646934C17.9643 0.634934 17.9643 0.623934 17.9643 0.611934" fill="url(#paint2_linear_57_329)"/>
  <path d="M6.02425 21.3933C5.42433 21.3915 4.82524 21.3484 4.23125 21.2643C3.50802 21.1113 2.8592 20.7147 2.39324 20.1408C1.92729 19.5669 1.67242 18.8505 1.67125 18.1113C1.64725 17.3213 1.65425 16.5303 1.67125 15.7403C1.66285 15.5773 1.69736 15.415 1.77131 15.2695C1.84527 15.124 1.95609 15.0005 2.09271 14.9112C2.22933 14.8219 2.38698 14.7701 2.54991 14.7608C2.71285 14.7515 2.87537 14.7851 3.02125 14.8583C3.18617 14.9339 3.32436 15.0577 3.41769 15.2133C3.51102 15.3689 3.55514 15.5491 3.54425 15.7303C3.54425 16.4583 3.54425 17.1853 3.54425 17.9133C3.52588 18.1226 3.55364 18.3335 3.62557 18.531C3.6975 18.7285 3.81185 18.9079 3.96058 19.0564C4.1093 19.2049 4.28878 19.3191 4.48638 19.3907C4.68397 19.4624 4.89488 19.4899 5.10425 19.4713C5.80425 19.4713 6.50425 19.4713 7.20425 19.4713C7.33533 19.4587 7.4676 19.4736 7.5926 19.515C7.71759 19.5565 7.83258 19.6235 7.9302 19.7119C8.02782 19.8003 8.10594 19.908 8.15956 20.0283C8.21318 20.1486 8.24113 20.2787 8.24162 20.4104C8.24211 20.5421 8.21513 20.6725 8.1624 20.7931C8.10967 20.9138 8.03236 21.0221 7.93539 21.1112C7.83843 21.2003 7.72395 21.2682 7.59926 21.3106C7.47457 21.353 7.34242 21.3689 7.21125 21.3573C6.81125 21.3573 6.42125 21.3573 6.02625 21.3573V21.3933" fill="url(#paint3_linear_57_329)"/>
  <path d="M22.3672 17.0438C22.3595 17.6171 22.3177 18.1895 22.2422 18.7579C22.0967 19.4823 21.7078 20.1352 21.1401 20.6081C20.5724 21.0811 19.86 21.3456 19.1212 21.3579C18.3132 21.3699 17.5052 21.3649 16.6972 21.3579C16.5732 21.3705 16.448 21.3558 16.3303 21.3148C16.2127 21.2738 16.1055 21.2074 16.0162 21.1205C15.927 21.0335 15.8579 20.928 15.8138 20.8115C15.7698 20.6949 15.7518 20.5701 15.7612 20.4459C15.7531 20.3196 15.7714 20.1931 15.8149 20.0744C15.8584 19.9556 15.9261 19.8472 16.0138 19.7561C16.1014 19.6649 16.2071 19.593 16.3241 19.5449C16.4411 19.4969 16.5668 19.4737 16.6932 19.4768C17.4472 19.4648 18.2012 19.4768 18.9562 19.4768C19.1547 19.4875 19.3533 19.4565 19.5391 19.3858C19.7249 19.3152 19.8939 19.2064 20.0351 19.0666C20.1764 18.9267 20.2868 18.7588 20.3594 18.5738C20.4319 18.3887 20.4649 18.1904 20.4562 17.9918C20.4622 17.2638 20.4562 16.5368 20.4562 15.8088C20.4406 15.679 20.4528 15.5473 20.492 15.4225C20.5313 15.2978 20.5966 15.1828 20.6838 15.0853C20.7709 14.9877 20.8778 14.9099 20.9974 14.8569C21.1169 14.8038 21.2464 14.7769 21.3772 14.7779C21.64 14.7896 21.8876 14.9043 22.0664 15.0973C22.2451 15.2903 22.3406 15.5459 22.3322 15.8088C22.3382 16.2218 22.3322 16.6349 22.3322 17.0489H22.3662" fill="url(#paint4_linear_57_329)"/>
  <path d="M6.06144 0.642336C6.46144 0.642336 6.86944 0.642336 7.27344 0.642336C7.39958 0.635811 7.52572 0.655446 7.64391 0.700009C7.7621 0.744572 7.8698 0.813098 7.96024 0.901283C8.05068 0.989467 8.1219 1.0954 8.16943 1.21244C8.21696 1.32947 8.23978 1.45507 8.23644 1.58134C8.24043 1.70771 8.21825 1.83355 8.17129 1.95094C8.12432 2.06833 8.05359 2.17474 7.96353 2.26349C7.87347 2.35223 7.76603 2.42139 7.64796 2.46663C7.52989 2.51186 7.40374 2.53219 7.27744 2.52634C6.52344 2.53534 5.76844 2.52634 5.01444 2.52634C4.82059 2.51958 4.62741 2.55258 4.4468 2.6233C4.26619 2.69403 4.10197 2.80098 3.96426 2.93757C3.82655 3.07416 3.71825 3.23749 3.64605 3.41752C3.57385 3.59754 3.53927 3.79044 3.54444 3.98434C3.53544 4.72134 3.54444 5.45734 3.54444 6.19434C3.56071 6.32488 3.54886 6.4574 3.50968 6.58299C3.4705 6.70858 3.40489 6.82432 3.31727 6.92246C3.22965 7.02059 3.12205 7.09884 3.00168 7.15194C2.88132 7.20505 2.75099 7.23178 2.61944 7.23034C2.35682 7.21812 2.10958 7.10299 1.93122 6.90984C1.75286 6.7167 1.65774 6.46109 1.66644 6.19834C1.66644 5.33634 1.63644 4.47134 1.69844 3.61334C1.78647 2.81555 2.15902 2.07619 2.74782 1.53073C3.33663 0.985272 4.10226 0.670234 4.90444 0.643336C5.29044 0.638336 5.67644 0.643336 6.06344 0.643336" fill="url(#paint5_linear_57_329)"/>
  </g>
  <defs>
  <linearGradient id="paint0_linear_57_329" x1="0.491699" y1="8.06357" x2="23.495" y2="8.06357" gradientUnits="userSpaceOnUse">
  <stop stop-color="#5a31ee"/>
  <stop offset="1" stop-color="#8f69ec"/>
  </linearGradient>
  <linearGradient id="paint1_linear_57_329" x1="4.95459" y1="15.8358" x2="19.0234" y2="15.8358" gradientUnits="userSpaceOnUse">
  <stop stop-color="#5a31ee"/>
  <stop offset="1" stop-color="#8f69ec"/>
  </linearGradient>
  <linearGradient id="paint2_linear_57_329" x1="15.7568" y1="3.9208" x2="22.3432" y2="3.9208" gradientUnits="userSpaceOnUse">
  <stop stop-color="#5a31ee"/>
  <stop offset="1" stop-color="#8f69ec"/>
  </linearGradient>
  <linearGradient id="paint3_linear_57_329" x1="1.65576" y1="18.0763" x2="8.24162" y2="18.0763" gradientUnits="userSpaceOnUse">
  <stop stop-color="#5a31ee"/>
  <stop offset="1" stop-color="#8f69ec"/>
  </linearGradient>
  <linearGradient id="paint4_linear_57_329" x1="15.7588" y1="18.0715" x2="22.3672" y2="18.0715" gradientUnits="userSpaceOnUse">
  <stop stop-color="#5a31ee"/>
  <stop offset="1" stop-color="#8f69ec"/>
  </linearGradient>
  <linearGradient id="paint5_linear_57_329" x1="1.65918" y1="3.93575" x2="8.23689" y2="3.93575" gradientUnits="userSpaceOnUse">
  <stop stop-color="#5a31ee"/>
  <stop offset="1" stop-color="#8f69ec"/>
  </linearGradient>
  </defs>
  </svg>
  