<svg width="54" height="53" viewBox="0 0 54 53" fill="none" xmlns="http://www.w3.org/2000/svg">
<path d="M52.196 41.4127L48.3896 37.6063V12.6202C48.3896 12.3925 48.3164 12.2053 48.17 12.0589C48.0236 11.9125 47.8365 11.8393 47.6087 11.8393H38.1609L33.5053 6.76398H22.6714L20.2362 9.45294L17.523 6.73962L21.0122 2.95752H35.1645L39.8591 8.03284H47.6087C48.8906 8.03284 49.9756 8.47693 50.8638 9.36511C51.7519 10.2533 52.196 11.3383 52.196 12.6202L52.196 41.4127ZM8.56796 46.0976C7.28611 46.0976 6.20109 45.6535 5.3129 44.7653C4.42472 43.8772 3.98064 42.7922 3.98064 41.5103V12.6202C3.98064 11.3383 4.42472 10.2533 5.3129 9.36511C6.20109 8.47693 7.28611 8.03284 8.56796 8.03284H11.6327L15.4391 11.8393H8.56796C8.34021 11.8393 8.15311 11.9125 8.00669 12.0589C7.86027 12.2053 7.78706 12.3925 7.78706 12.6202V41.5103C7.78706 41.738 7.86027 41.9251 8.00669 42.0715C8.15311 42.218 8.34021 42.2912 8.56796 42.2912H45.891L49.6974 46.0976H8.56796ZM36.6431 33.0433C35.6834 34.4 34.4674 35.4834 32.9953 36.2935C31.5231 37.1036 29.8875 37.5086 28.0883 37.5086C25.1765 37.5086 22.708 36.496 20.6828 34.4708C18.6576 32.4456 17.645 29.9771 17.645 27.0652C17.645 25.2661 18.05 23.6305 18.8601 22.1583C19.6702 20.6862 20.7536 19.4702 22.1102 18.5105L24.8626 21.2628C23.8312 21.8289 23.0049 22.6187 22.3835 23.632C21.7621 24.6455 21.4513 25.7899 21.4513 27.0652C21.4513 28.9392 22.089 30.5139 23.3643 31.7892C24.6397 33.0646 26.2144 33.7022 28.0883 33.7022C29.3637 33.7022 30.5081 33.3915 31.5215 32.7701C32.535 32.1487 33.3247 31.3223 33.8908 30.291L36.6431 33.0433ZM35.5012 19.6524C36.4284 20.5536 37.1531 21.6085 37.6752 22.8171C38.1974 24.0258 38.4748 25.3361 38.5073 26.748V27.2165C38.5073 27.3726 38.4943 27.5288 38.4682 27.6849L27.4686 16.6853C27.6248 16.6592 27.7809 16.6462 27.9371 16.6462H28.4055C29.8175 16.6788 31.1278 16.9562 32.3364 17.4783C33.5451 18.0005 34.6 18.7252 35.5012 19.6524ZM50.4003 52.2271L0.886719 2.71344L3.59992 0.00012207L53.1135 49.5137L50.4003 52.2271Z" fill="#7F56D9"/>
</svg>
