<svg width="351" height="351" viewBox="0 0 351 351" fill="none" xmlns="http://www.w3.org/2000/svg">
<path d="M337.309 3.90692C342.919 3.90692 347.483 8.4708 347.483 14.0812V33.4539H350.39V14.0812C350.39 6.86811 344.522 1 337.309 1H317.874V3.90692H337.309Z" fill="#9E77ED" stroke="#9E77ED"/>
<path d="M3.90692 14.0812C3.90692 8.4708 8.4708 3.90692 14.0812 3.90692H33.4684V1H14.0812C6.86811 1 1 6.86811 1 14.0812V33.4539H3.90692V14.0812Z" fill="#9E77ED" stroke="#9E77ED"/>
<path d="M347.483 337.309C347.483 342.919 342.919 347.483 337.309 347.483H317.874V350.39H337.309C344.522 350.39 350.39 344.522 350.39 337.309V317.859H347.483V337.309Z" fill="#9E77ED" stroke="#9E77ED"/>
<path d="M14.0812 347.483C8.4708 347.483 3.90692 342.919 3.90692 337.309V317.859H1V337.309C1 344.522 6.86811 350.39 14.0812 350.39H33.4684V347.483H14.0812Z" fill="#9E77ED" stroke="#9E77ED"/>
</svg>
