<svg width="98" height="98" viewBox="0 0 98 98" fill="none" xmlns="http://www.w3.org/2000/svg">
<path opacity="0.3" d="M0.748047 42.9953V0.247925H43.4954V42.9953H0.748047ZM9.29741 34.4459H34.9461V8.7973H9.29741V34.4459ZM0.748047 97.142V54.3947H43.4954V97.142H0.748047ZM9.29741 88.5927H34.9461V62.944H9.29741V88.5927ZM54.8948 42.9953V0.247925H97.6422V42.9953H54.8948ZM63.4441 34.4459H89.0928V8.7973H63.4441V34.4459ZM86.9553 97.142V86.4551H97.6422V97.142H86.9553ZM54.8948 65.0815V54.3947H65.5816V65.0815H54.8948ZM65.5816 75.7682V65.0815H76.2684V75.7682H65.5816ZM54.8948 86.4551V75.7682H65.5816V86.4551H54.8948ZM65.5816 97.142V86.4551H76.2684V97.142H65.5816ZM76.2684 86.4551V75.7682H86.9553V86.4551H76.2684ZM76.2684 65.0815V54.3947H86.9553V65.0815H76.2684ZM86.9553 75.7682V65.0815H97.6422V75.7682H86.9553Z" fill="#9E77ED"/>
</svg>
