<svg width="54" height="53" viewBox="0 0 54 53" fill="none" xmlns="http://www.w3.org/2000/svg">
  <path d="M52.1962 41.4149L48.3902 37.6089V12.6229C48.3937 12.5194 48.376 12.4162 48.3382 12.3197C48.3003 12.2232 48.2432 12.1355 48.1702 12.062C48.0966 11.989 48.0089 11.9318 47.9124 11.894C47.816 11.8561 47.7128 11.8384 47.6092 11.8419H38.1612L33.5052 6.76691H22.6722L20.2372 9.45593L17.5242 6.74292L21.0132 2.96094H35.1652L39.8602 8.03595H47.6102C48.215 8.02388 48.8158 8.13584 49.3756 8.36493C49.9354 8.59402 50.4424 8.93535 50.8652 9.36792C51.2978 9.79073 51.6391 10.2977 51.8682 10.8575C52.0973 11.4174 52.2093 12.0182 52.1972 12.6229L52.1962 41.4149ZM8.56821 46.0999C7.96344 46.112 7.36261 46 6.80279 45.7709C6.24296 45.5418 5.73601 45.2005 5.31321 44.7679C4.88063 44.3451 4.53927 43.8381 4.31018 43.2783C4.08109 42.7185 3.96913 42.1177 3.9812 41.5129V12.6229C3.96913 12.0182 4.08109 11.4174 4.31018 10.8575C4.53927 10.2977 4.88063 9.79073 5.31321 9.36792C5.73601 8.93535 6.24296 8.59402 6.80279 8.36493C7.36261 8.13584 7.96344 8.02388 8.56821 8.03595H11.6332L15.4392 11.8419H8.56821C8.46464 11.8384 8.36144 11.8561 8.26497 11.894C8.16849 11.9318 8.08078 11.989 8.00721 12.062C7.93423 12.1355 7.87706 12.2232 7.83923 12.3197C7.8014 12.4162 7.78369 12.5194 7.7872 12.6229V41.5129C7.78369 41.6165 7.8014 41.7197 7.83923 41.8162C7.87706 41.9126 7.93423 42.0003 8.00721 42.0739C8.08078 42.1469 8.16849 42.204 8.26497 42.2419C8.36144 42.2797 8.46464 42.2975 8.56821 42.2939H45.8912L49.6972 46.0999H8.56821ZM36.6432 33.046C35.6924 34.3946 34.4442 35.5066 32.9952 36.296C31.4905 37.1142 29.8009 37.5325 28.0882 37.5109C26.7117 37.5373 25.3444 37.2814 24.0706 36.7589C22.7968 36.2363 21.6437 35.4583 20.6822 34.4729C19.6968 33.5115 18.9188 32.3583 18.3963 31.0845C17.8738 29.8108 17.6178 28.4435 17.6442 27.067C17.6226 25.3543 18.041 23.6647 18.8592 22.1599C19.6486 20.7109 20.7606 19.4627 22.1092 18.5119L24.8612 21.2639C23.8399 21.8205 22.9845 22.6379 22.3822 23.6329C21.7551 24.667 21.4321 25.8567 21.4502 27.0659C21.4296 27.9422 21.5887 28.8135 21.9177 29.626C22.2467 30.4384 22.7386 31.1749 23.3632 31.7899C23.9782 32.4145 24.7147 32.9065 25.5272 33.2355C26.3396 33.5645 27.2109 33.7236 28.0872 33.7029C29.2964 33.721 30.4862 33.398 31.5202 32.7709C32.5152 32.1687 33.3327 31.3133 33.8892 30.2919L36.6412 33.0439L36.6432 33.046ZM35.5012 19.6549C36.4281 20.5557 37.167 21.6315 37.6752 22.8199C38.2049 24.0639 38.4875 25.399 38.5072 26.7509V27.2189C38.5071 27.3757 38.4941 27.5323 38.4682 27.687L27.4682 16.687C27.6229 16.6611 27.7794 16.648 27.9362 16.6479H28.4042C29.7561 16.6677 31.0912 16.9502 32.3352 17.4799C33.5238 17.9874 34.5999 18.7256 35.5012 19.6519V19.6549ZM50.4012 52.2299L0.887207 2.7149L3.6002 0.00195312L53.1142 49.515L50.4012 52.2279V52.2299Z" fill="url(#paint0_linear_1_2733)"/>
  <defs>
  <linearGradient id="paint0_linear_1_2733" x1="0.887207" y1="26.1159" x2="53.1142" y2="26.1159" gradientUnits="userSpaceOnUse">
  <stop stop-color="#52AE32"/>
  <stop offset="1" stop-color="#006535"/>
  </linearGradient>
  </defs>
  </svg>
  