<svg xmlns="http://www.w3.org/2000/svg" width="61.733" height="80.161" viewBox="0 0 61.733 80.161">
  <g id="Group_58122" data-name="Group 58122" transform="translate(-165.634 -616.919)">
    <path id="description_FILL0_wght100_GRAD0_opsz24" d="M39.85-30.636H70.716v-3.225H39.85Zm0-18.428H70.716v-3.225H39.85ZM31.327-15.2a6.712,6.712,0,0,1-4.952-1.958,6.712,6.712,0,0,1-1.958-4.952v-66.34a6.712,6.712,0,0,1,1.958-4.952,6.712,6.712,0,0,1,4.952-1.958H67.492L86.15-76.706v54.592a6.712,6.712,0,0,1-1.958,4.952A6.712,6.712,0,0,1,79.239-15.2Zm34.552-59.89V-92.139H31.327a3.522,3.522,0,0,0-2.534,1.152,3.522,3.522,0,0,0-1.152,2.534v66.34a3.522,3.522,0,0,0,1.152,2.534,3.522,3.522,0,0,0,2.534,1.152H79.239a3.522,3.522,0,0,0,2.534-1.152,3.522,3.522,0,0,0,1.152-2.534v-52.98ZM27.642-92.139v0Z" transform="translate(141.217 712.282)"/>
  </g>
</svg>
