<svg width="12" height="7" viewBox="0 0 12 7" fill="none" xmlns="http://www.w3.org/2000/svg">
    <path d="M6.46975 6.77448C6.42037 6.82832 6.36034 6.87131 6.29347 6.90072C6.22659 6.93013 6.15434 6.94531 6.08128 6.94531C6.00823 6.94531 5.93597 6.93013 5.8691 6.90072C5.80223 6.87131 5.7422 6.82832 5.69282 6.77448L1.09347 1.75662C1.02364 1.68133 0.977326 1.58728 0.960215 1.48603C0.943102 1.38479 0.955936 1.28074 0.997141 1.18669C1.03835 1.09264 1.10613 1.01266 1.19216 0.956602C1.27818 0.900539 1.37872 0.870826 1.4814 0.871113L10.6801 0.871113C10.7825 0.871 10.8827 0.900697 10.9684 0.956577C11.0542 1.01246 11.1218 1.0921 11.1631 1.18579C11.2043 1.27947 11.2174 1.38314 11.2007 1.48413C11.184 1.58513 11.1383 1.67908 11.0691 1.75451L6.46975 6.77448Z" fill="url(#paint0_linear_57_188)"/>
    <defs>
    <linearGradient id="paint0_linear_57_188" x1="11.2078" y1="3.90821" x2="0.952844" y2="3.90821" gradientUnits="userSpaceOnUse">
    <stop stop-color="#FF5300"/>
    <stop offset="0.16" stop-color="#FB5103"/>
    <stop offset="0.31" stop-color="#F04C0F"/>
    <stop offset="0.46" stop-color="#DE4322"/>
    <stop offset="0.61" stop-color="#C5363C"/>
    <stop offset="0.75" stop-color="#A4265F"/>
    <stop offset="0.9" stop-color="#7C1389"/>
    <stop offset="1" stop-color="#5B03AD"/>
    </linearGradient>
    </defs>
    </svg>
    